<svg width="77" height="76" viewBox="0 0 77 76" fill="none" xmlns="http://www.w3.org/2000/svg">
<mask id="mask0_791_1906" style="mask-type:alpha" maskUnits="userSpaceOnUse" x="0" y="0" width="77" height="76">
<circle cx="38.7577" cy="38.1385" r="37.8617" fill="white"/>
</mask>
<g mask="url(#mask0_791_1906)">
<path d="M61.6555 66.2407C61.6555 66.2407 51.0446 71.1862 44.7353 72.5081C43.7774 69.3027 44.0693 64.8321 43.959 61.5826C46.5527 59.2874 57.1268 55.7468 58.9397 51.7356C59.844 49.7345 60.6799 47.3562 61.2526 44.9536C62.1899 45.1205 63.4434 44.2001 64.4609 42.3658C64.4609 42.0254 63.0126 63.6984 65.213 69.7342C65.2145 69.735 62.8479 69.2586 61.6555 66.2407Z" fill="#DC5C05"/>
<path d="M16.4296 66.2403C16.4296 66.2403 25.8958 70.8183 32.2058 72.1401C33.1615 68.9348 32.9961 63.8106 33.1071 60.5611C30.5141 58.2659 20.2055 55.7464 18.394 51.7353C17.4897 49.7341 16.5406 47.2603 15.9701 44.8577C15.0386 45.6193 13.8918 44.5401 12.8713 42.7065C12.8713 42.7117 15.0717 63.6988 12.8713 69.7346C12.8713 69.7346 15.2386 69.2582 16.4296 66.2403Z" fill="#DC5C05"/>
<path d="M44.7359 58.9829H32.665V71.27H44.7359V58.9829Z" fill="#FDCC9B"/>
<path d="M19.2754 40.1194C19.2916 42.9367 17.0213 45.2333 14.2041 45.2495C11.3855 45.2679 9.08876 42.9977 9.07186 40.1797C9.05642 37.3625 11.3259 35.0636 14.1439 35.0489C16.9611 35.032 19.2585 37.3037 19.2754 40.1194Z" fill="#FDCC9B"/>
<path d="M17.1368 40.1317C17.1478 41.7697 15.8274 43.104 14.1909 43.1143C12.5552 43.1232 11.2208 41.805 11.2105 40.1677C11.2002 38.5298 12.5199 37.1969 14.1556 37.1881C15.7936 37.1763 17.1265 38.4959 17.1368 40.1317Z" fill="#F4B882"/>
<path d="M68.3299 39.8314C68.3468 42.6486 66.0758 44.946 63.2579 44.9622C60.4399 44.9806 58.1425 42.7089 58.1256 39.8917C58.1087 37.0737 60.3796 34.777 63.1976 34.7608C66.0148 34.7432 68.3107 37.0142 68.3299 39.8314Z" fill="#FDCC9B"/>
<path d="M66.1893 39.8443C66.201 41.4816 64.8807 42.8152 63.2441 42.8255C61.6084 42.8343 60.274 41.5161 60.2637 39.8774C60.2534 38.2416 61.5716 36.9073 63.2111 36.897C64.8461 36.8889 66.1797 38.2071 66.1893 39.8443Z" fill="#F4B882"/>
<path d="M63.1095 41.6497C63.1749 52.5568 54.3043 61.5326 43.3964 61.5965L34.006 61.6495C23.0989 61.7157 14.1224 52.8443 14.0569 41.9386L14.0084 33.4039C13.943 22.4954 22.8144 13.5196 33.72 13.4556L43.1126 13.3998C54.0197 13.3358 62.997 22.2072 63.061 33.1136L63.1095 41.6497Z" fill="#FDCC9B"/>
<path d="M41.435 47.0539C41.4402 48.0037 40.2235 48.7815 38.7185 48.7918C37.2114 48.8006 35.9859 48.0375 35.98 47.0855C35.9741 46.1364 37.1916 45.3593 38.698 45.3512C40.2021 45.3409 41.4277 46.1055 41.435 47.0539Z" fill="#F4B882"/>
<path d="M38.707 51.9834H31.9551C31.9551 51.9834 32.5528 56.5856 38.707 56.5856C44.8633 56.5856 45.4603 51.9834 45.4603 51.9834H38.707Z" fill="white"/>
<path d="M53.7054 41.8247C53.7054 43.2178 52.8791 44.3566 51.8689 44.3566C50.8588 44.3566 50.0332 43.2171 50.0332 41.8247C50.0332 40.4315 50.8588 39.2935 51.8689 39.2935C52.8791 39.2935 53.7054 40.4315 53.7054 41.8247Z" fill="#352215"/>
<path d="M27.097 41.8247C27.097 43.2178 26.2714 44.3566 25.2613 44.3566C24.2511 44.3566 23.4248 43.2171 23.4248 41.8247C23.4248 40.4315 24.2511 39.2935 25.2613 39.2935C26.2714 39.2927 27.097 40.4315 27.097 41.8247Z" fill="#352215"/>
<path d="M44.736 65.1264C43.684 66.8607 41.041 70.5924 38.4502 70.5344C36.0263 70.4807 33.6495 66.7489 32.6651 65.1264C32.6651 65.1264 13.4836 64.6823 9.07178 75.9453H38.5657H38.7002H68.1948C63.7823 64.6823 44.736 65.1264 44.736 65.1264Z" fill="#059D86"/>
<path d="M49.0148 35.9196C50.7601 34.9977 52.9517 35.0396 54.5139 36.2901C54.9528 36.6393 55.577 36.0218 55.1351 35.6682C53.2479 34.1603 50.6998 34.0382 48.5729 35.1616C48.0723 35.4255 48.5156 36.1828 49.0148 35.9196Z" fill="#6D4D42"/>
<path d="M28.1026 35.9196C26.3565 34.9977 24.1657 35.0396 22.6034 36.2901C22.166 36.6393 21.5418 36.0218 21.9822 35.6682C23.8694 34.1603 26.4175 34.0382 28.5451 35.1616C29.0443 35.4255 28.6017 36.1828 28.1026 35.9196Z" fill="#6D4D42"/>
<path d="M15.5302 37.1896C15.5302 37.1896 17.2071 31.7706 18.4378 30.7854C18.4378 30.7854 49.5337 35.1965 51.5752 20.2128C51.5752 20.2128 54.0991 27.8896 60.4702 31.6294C61.8891 32.4616 62.5463 37.1881 62.5463 37.1881C62.5463 37.1881 64.8959 34.3282 66.3119 35.8015C66.3119 35.8015 67.6911 29.6599 62.7933 20.1783C57.7677 10.4497 49.244 8.12798 40.1543 10.0755C40.1543 10.0755 32.6253 8.18972 25.7668 11.5657C18.9069 14.9416 16.5043 18.5366 14.3929 22.8323C12.2829 27.1279 11.944 35.5803 12.3417 35.5523C14.4789 35.4031 15.5302 37.1896 15.5302 37.1896Z" fill="#DC5C05"/>
</g>
<circle cx="38.7577" cy="38.1385" r="37.3617" stroke="#DAD8DB"/>
</svg>
