<svg width="40" height="40" viewBox="0 0 40 40" fill="none" xmlns="http://www.w3.org/2000/svg">
<mask id="mask0_702_4133" style="mask-type:alpha" maskUnits="userSpaceOnUse" x="0" y="0" width="40" height="40">
<circle cx="20" cy="20" r="20" fill="white"/>
</mask>
<g mask="url(#mask0_702_4133)">
<path d="M23.2056 32.3809H17.171V38.5231H23.2056V32.3809Z" fill="#FDCC9B"/>
<path d="M10.4775 22.9508C10.4863 24.3591 9.35069 25.5072 7.9431 25.5153C6.53405 25.5245 5.38557 24.3896 5.37712 22.9809C5.36903 21.5726 6.50391 20.4234 7.9126 20.4161C9.32128 20.4076 10.469 21.5432 10.4775 22.9508Z" fill="#FDCC9B"/>
<path d="M9.40874 22.9569C9.41388 23.7757 8.75418 24.4428 7.9361 24.4479C7.11838 24.4523 6.45134 23.7934 6.4462 22.9749C6.44105 22.1561 7.10073 21.4898 7.91845 21.4854C8.73728 21.4795 9.40396 22.1392 9.40874 22.9569Z" fill="#F4B882"/>
<path d="M34.9998 22.8068C35.0083 24.2151 33.873 25.3636 32.4647 25.3717C31.056 25.3808 29.9072 24.2452 29.8991 22.8369C29.8906 21.4282 31.0259 20.2801 32.4346 20.272C33.8429 20.2632 34.9906 21.3985 34.9998 22.8068Z" fill="#FDCC9B"/>
<path d="M33.9301 22.8132C33.9356 23.6317 33.2759 24.2984 32.4578 24.3035C31.6401 24.3079 30.9731 23.649 30.9679 22.8298C30.9628 22.012 31.6217 21.345 32.4413 21.3399C33.259 21.3358 33.9253 21.9948 33.9301 22.8132Z" fill="#F4B882"/>
<path d="M32.3905 23.7156C32.4232 29.168 27.9884 33.655 22.5359 33.687L17.8417 33.7134C12.3892 33.7465 7.90187 29.3117 7.86917 23.86L7.84491 19.5935C7.8122 14.1403 12.2474 9.65333 17.6991 9.62136L22.3941 9.59343C27.8465 9.56146 32.3346 13.9963 32.3666 19.4483L32.3905 23.7156Z" fill="#FDCC9B"/>
<path d="M21.5555 26.4171C21.5577 26.892 20.9498 27.2808 20.1975 27.2859C19.4441 27.2903 18.8314 26.9089 18.8285 26.4329C18.8256 25.9585 19.4342 25.57 20.1872 25.566C20.9388 25.5608 21.5518 25.943 21.5555 26.4171Z" fill="#F4B882"/>
<path d="M20.1909 28.1465H15.9888C15.9888 28.1465 16.3607 31.3975 20.1909 31.3975C24.0226 31.3975 24.3942 28.1465 24.3942 28.1465H20.1909Z" fill="white"/>
<path d="M26.0832 23.8035C26.0968 23.3897 26.2728 22.7987 26.7712 22.7678C27.2662 22.737 27.4474 23.4382 27.4592 23.8035C27.4687 24.099 27.9281 24.1001 27.9186 23.8035C27.8961 23.1137 27.5411 22.3562 26.7712 22.3084C26.0038 22.2603 25.644 23.1897 25.6238 23.8035C25.6142 24.0997 26.0736 24.0986 26.0832 23.8035Z" fill="#352215"/>
<path d="M12.7818 23.8035C12.7954 23.3893 12.9718 22.7987 13.4702 22.7678C13.9652 22.737 14.1464 23.4385 14.1582 23.8035C14.1677 24.099 14.6271 24.1001 14.6176 23.8035C14.5951 23.1137 14.2401 22.3562 13.4702 22.3084C12.7028 22.2603 12.3426 23.1894 12.3224 23.8035C12.3129 24.0997 12.7723 24.0986 12.7818 23.8035Z" fill="#352215"/>
<path d="M25.0716 20.7033C26.0973 19.8239 27.4546 19.9577 28.463 20.7871C28.7093 20.9889 29.0128 20.6012 28.7681 20.3994C27.5994 19.4384 25.9702 19.2855 24.7735 20.3105C24.5339 20.5159 24.8294 20.911 25.0716 20.7033Z" fill="#63453D"/>
<path d="M15.17 20.7033C14.1443 19.8239 12.7874 19.9577 11.7786 20.7871C11.5323 20.9889 11.2288 20.6012 11.4735 20.3994C12.6422 19.4384 14.2711 19.2855 15.4677 20.3105C15.708 20.5159 15.4118 20.911 15.17 20.7033Z" fill="#63453D"/>
<path d="M23.2056 35.4514C22.1876 37.1291 18.189 37.1291 17.171 35.4514C17.171 35.4514 7.58253 35.2294 5.37708 40.8597H20.121H20.1883H34.9323C32.7272 35.2294 23.2056 35.4514 23.2056 35.4514Z" fill="#A9BF52"/>
<path d="M8.58371 22.3056C8.58371 22.3056 8.79172 20.5515 9.66052 19.1465C10.1372 18.3769 11.0306 16.5099 12.2941 15.482C14.4467 13.7315 21.3622 16.0917 27.9697 14.1821C27.9697 14.1821 27.7628 15.4915 28.933 16.801C30.1032 18.1108 32.5677 19.7929 32.499 21.9205C32.499 21.9205 33.2241 20.442 34.1197 20.9925C34.1197 20.9925 35.8158 13.4184 31.1355 11.891C31.1355 11.891 31.2869 8.13795 27.6257 6.21621C23.3085 3.95048 21.1737 2.11363 21.1737 2.11363C21.1737 2.11363 21.7293 3.63258 22.5526 4.15629C22.5526 4.15629 20.1512 4.00671 18.6227 1.80566C18.6227 1.80566 17.3445 3.45397 19.3309 4.41612C19.3309 4.41612 17.7958 4.42714 17.2196 3.49365C17.2196 3.49365 16.6683 5.10227 19.4342 5.53447C19.4342 5.53447 16.0913 5.6789 16.3927 3.37495C16.3927 3.37495 13.7903 4.77041 11.5529 7.55323C11.5529 7.55323 12.3787 5.91595 12.8267 5.56167C12.8267 5.56167 10.9299 6.43377 9.72888 9.57161C9.72888 9.57161 7.86999 12.0542 7.18164 14.7826C6.49439 17.5107 6.26101 19.2174 6.67373 20.7452C6.67373 20.7452 8.21546 20.5728 8.58371 22.3056Z" fill="#63453D"/>
</g>
</svg>
