<svg width="77" height="76" viewBox="0 0 77 76" fill="none" xmlns="http://www.w3.org/2000/svg">
<mask id="mask0_791_1871" style="mask-type:alpha" maskUnits="userSpaceOnUse" x="0" y="0" width="77" height="76">
<circle cx="38.3097" cy="38.1385" r="37.8617" fill="white"/>
</mask>
<g mask="url(#mask0_791_1871)">
<path d="M62.241 45.3229C60.7963 42.9916 59.6355 40.8177 58.6967 38.8452C58.1343 39.4517 57.566 39.7274 57.0962 39.4245C56.5992 41.6499 55.9368 43.7437 55.1568 45.6008C54.2055 47.8644 41.3141 50.8389 32.1803 53.1885C32.1979 53.029 32.2273 52.8629 32.2317 52.7107C29.9637 50.5537 21.5886 49.3715 20.005 45.6008C19.2147 43.7202 18.5442 41.594 18.045 39.3363C17.5951 39.7318 17.0393 39.5356 16.4798 38.993C15.627 40.9522 14.6566 43.082 13.5678 45.3229C6.73577 59.3787 7.75179 68.7684 12.64 74.7697C14.089 74.1536 56.8514 72.1554 63.5724 74.9263C68.9223 68.206 69.9912 57.8253 62.241 45.3229Z" fill="#966544"/>
<path d="M44.2992 59.2837H32.2283V71.57H44.2992V59.2837Z" fill="#FDCC9B"/>
<path d="M18.8393 40.4205C18.8555 43.2377 16.5853 45.5344 13.7688 45.5513C10.9501 45.5704 8.65347 43.2987 8.63729 40.4815C8.62112 37.6636 10.8913 35.3654 13.7085 35.3507C16.525 35.333 18.8217 37.604 18.8393 40.4205Z" fill="#FDCC9B"/>
<path d="M16.6997 40.4325C16.7108 42.0697 15.3904 43.4041 13.7546 43.4151C12.1189 43.4232 10.7838 42.105 10.7735 40.4678C10.7632 38.8298 12.0828 37.4969 13.7186 37.4888C15.3573 37.4771 16.6902 38.7967 16.6997 40.4325Z" fill="#F4B882"/>
<path d="M67.8931 40.1314C67.9107 42.9486 65.639 45.2468 62.8211 45.2622C60.0039 45.2806 57.7057 43.0096 57.6895 40.1924C57.6726 37.3745 59.9436 35.0785 62.7608 35.0616C65.5788 35.0433 67.8747 37.315 67.8931 40.1314Z" fill="#FDCC9B"/>
<path d="M65.7523 40.1449C65.764 41.7821 64.4436 43.1157 62.8079 43.126C61.1721 43.1341 59.837 41.8159 59.8267 40.1787C59.8164 38.5429 61.1346 37.2086 62.7748 37.1983C64.4106 37.1895 65.7427 38.5076 65.7523 40.1449Z" fill="#F4B882"/>
<path d="M62.6735 41.9505C62.7396 52.8576 53.8675 61.8334 42.9604 61.8973L33.57 61.9503C22.6629 62.0164 13.6871 53.1443 13.6209 42.2387L13.5724 33.704C13.5077 22.7962 22.3791 13.8204 33.2847 13.7564L42.6774 13.7005C53.5845 13.6373 62.5625 22.5072 62.6257 33.4151L62.6735 41.9505Z" fill="#FDCC9B"/>
<path d="M40.9983 47.3551C41.0034 48.305 39.7867 49.0835 38.2818 49.0931C36.7754 49.1019 35.5491 48.3388 35.5432 47.3867C35.5374 46.4369 36.7548 45.6598 38.2612 45.6524C39.7654 45.6422 40.9909 46.4067 40.9983 47.3551Z" fill="#F4B882"/>
<path d="M53.2691 42.1247C53.2691 43.5172 52.4428 44.6567 51.4334 44.6567C50.4225 44.6567 49.5969 43.5172 49.5969 42.1247C49.5969 40.7323 50.4225 39.5928 51.4334 39.5928C52.4428 39.5935 53.2691 40.7323 53.2691 42.1247Z" fill="#352215"/>
<path d="M26.6607 42.1247C26.6607 43.5172 25.8344 44.6567 24.8243 44.6567C23.8149 44.6567 22.9878 43.5172 22.9878 42.1247C22.9878 40.7323 23.8149 39.5928 24.8243 39.5928C25.8344 39.5935 26.6607 40.7323 26.6607 42.1247Z" fill="#352215"/>
<path d="M32.0349 52.8997C33.8736 57.1579 42.967 57.2049 44.6123 52.7659C44.8659 52.0837 43.7779 51.7933 43.5279 52.4667C42.2046 56.0345 34.4301 55.6302 33.0053 52.3322C32.7179 51.6676 31.7489 52.241 32.0349 52.8997Z" fill="#F1A58D"/>
<path d="M44.2992 65.4272C43.2472 67.1607 40.6042 70.8932 38.0135 70.8351C35.5896 70.7815 33.2127 67.0497 32.2283 65.4272C32.2283 65.4272 13.0468 64.9831 8.63574 76.2453H38.1289H38.2642H67.758C63.347 64.9831 44.2992 65.4272 44.2992 65.4272Z" fill="#FDCC9B"/>
<path d="M48.5786 36.2204C50.3239 35.2992 52.5147 35.3411 54.077 36.5909C54.5159 36.9401 55.1401 36.3233 54.6982 35.9689C52.811 34.4611 50.2629 34.339 48.136 35.4624C47.6354 35.7263 48.0794 36.4828 48.5786 36.2204Z" fill="#966544"/>
<path d="M27.6658 36.2204C25.9198 35.2992 23.7289 35.3411 22.1667 36.5909C21.7292 36.9401 21.1051 36.3233 21.5454 35.9689C23.4326 34.4611 25.9808 34.339 28.1084 35.4624C28.6083 35.7263 28.165 36.4828 27.6658 36.2204Z" fill="#966544"/>
<path d="M57.4332 67.5746C57.4332 67.5746 54.2359 66.1322 49.6109 65.7822C49.6109 65.7822 47.956 69.4963 38.2641 69.564C28.5723 69.4963 26.9174 65.7822 26.9174 65.7822C22.2924 66.1329 19.0951 67.5746 19.0951 67.5746C19.8759 73.3024 14.8223 76.2445 14.8223 76.2445H37.9995H38.5266H61.7038C61.7053 76.2445 56.6524 73.3024 57.4332 67.5746Z" fill="#EB82A0"/>
<path d="M14.82 39.0118C14.82 39.0118 15.9911 32.2334 17.224 31.1344C17.224 31.1344 25.4029 29.2155 30.8623 30C30.8623 30 31.9886 24.8692 31.8077 21.5616C31.8077 21.5616 34.5727 25.3647 34.7595 29.9757C34.7595 29.9757 45.5673 30.3088 49.9703 29.8375C49.9703 29.8375 50.9253 23.9178 49.4903 22.0623C49.4903 22.0623 53.1536 26.8402 53.1625 29.9757C53.1625 29.9757 58.258 30.8197 59.3137 32.0746C60.3716 33.3303 61.4913 39.5926 61.4913 39.5926C61.4913 39.5926 62.5676 34.7147 65.3569 35.8167C65.3569 35.8167 67.4536 29.6581 61.6413 19.3017C55.8304 8.94521 48.0736 5.8604 38.9713 8.03212C38.9713 8.03212 31.4306 5.92951 24.5626 9.69509C17.6931 13.4614 15.2861 17.4718 13.1732 22.2622C11.0595 27.0534 10.1413 36.1828 11.3294 35.8968C13.6018 35.3499 14.82 39.0118 14.82 39.0118Z" fill="#966544"/>
</g>
<circle cx="38.3097" cy="38.1385" r="37.3617" stroke="#DAD8DB"/>
</svg>
