<svg width="77" height="76" viewBox="0 0 77 76" fill="none" xmlns="http://www.w3.org/2000/svg">
<mask id="mask0_791_1801" style="mask-type:alpha" maskUnits="userSpaceOnUse" x="0" y="0" width="77" height="76">
<circle cx="38.7577" cy="37.8617" r="37.8617" fill="white"/>
</mask>
<g mask="url(#mask0_791_1801)">
<path d="M44.5052 59.0073H32.4336V71.2936H44.5052V59.0073Z" fill="#FDCC9B"/>
<path d="M19.0437 40.1441C19.0613 42.9613 16.7896 45.258 13.9739 45.2749C11.1552 45.294 8.85782 43.0223 8.84091 40.2051C8.82473 37.3872 11.095 35.089 13.9129 35.0743C16.7308 35.0567 19.0268 37.3276 19.0437 40.1441Z" fill="#FDCC9B"/>
<path d="M16.9061 40.1556C16.9164 41.7929 15.5967 43.1272 13.9602 43.1383C12.3244 43.1464 10.9901 41.8282 10.9798 40.1909C10.9695 38.553 12.2891 37.2201 13.9249 37.212C15.5629 37.2002 16.8965 38.5199 16.9061 40.1556Z" fill="#F4B882"/>
<path d="M68.0984 39.8546C68.1153 42.6718 65.8443 44.9699 63.0271 44.9854C60.2092 45.0038 57.911 42.7328 57.8949 39.9156C57.878 37.0976 60.1489 34.8017 62.9669 34.7848C65.7841 34.7664 68.08 37.0381 68.0984 39.8546Z" fill="#FDCC9B"/>
<path d="M65.9583 39.868C65.9693 41.5053 64.6497 42.8389 63.0132 42.8492C61.3774 42.8573 60.0431 41.5391 60.0328 39.9018C60.0225 38.2661 61.3407 36.9317 62.9801 36.9214C64.6159 36.9126 65.9488 38.2308 65.9583 39.868Z" fill="#F4B882"/>
<path d="M62.8788 41.6736C62.9442 52.5807 54.0728 61.5565 43.1657 61.6205L33.7753 61.6734C22.8682 61.7396 13.8917 52.8675 13.8262 41.9618L13.7777 33.4271C13.7123 22.5193 22.5844 13.5435 33.49 13.4795L42.8819 13.4237C53.789 13.3605 62.767 22.2304 62.831 33.1382L62.8788 41.6736Z" fill="#FDCC9B"/>
<path d="M41.2043 47.0783C41.2087 48.0281 39.9927 48.8067 38.4878 48.8162C36.9807 48.825 35.7552 48.0619 35.7493 47.1099C35.7434 46.16 36.9609 45.3829 38.4673 45.3756C39.9707 45.3653 41.197 46.1299 41.2043 47.0783Z" fill="#F4B882"/>
<path d="M38.4746 50.5361H30.0686C30.0686 50.5361 30.8126 57.0403 38.4746 57.0403C46.1396 57.0403 46.8829 50.5361 46.8829 50.5361H38.4746Z" fill="white"/>
<path d="M50.2618 41.848C50.289 41.0202 50.6411 39.838 51.638 39.7755C52.6283 39.7138 52.9908 41.1172 53.0143 41.848C53.0334 42.4391 53.9524 42.4413 53.9333 41.848C53.8884 40.4681 53.1782 38.9529 51.638 38.8566C50.103 38.761 49.3833 40.6195 49.3428 41.848C49.3237 42.4413 50.2427 42.4391 50.2618 41.848Z" fill="#352215"/>
<path d="M23.6534 41.848C23.6806 41.0195 24.0335 39.838 25.0304 39.7755C26.0207 39.7138 26.3831 41.118 26.4067 41.848C26.4258 42.4391 27.3447 42.4413 27.3256 41.848C27.2808 40.4681 26.5706 38.9529 25.0304 38.8566C23.4953 38.761 22.7749 40.6195 22.7344 41.848C22.7153 42.4413 23.6343 42.4391 23.6534 41.848Z" fill="#352215"/>
<path d="M48.2378 35.6472C50.2897 33.8879 53.0047 34.1555 55.022 35.8155C55.5146 36.2199 56.1219 35.4435 55.6323 35.0406C53.2944 33.1182 50.0353 32.8116 47.6416 34.8627C47.1623 35.273 47.7533 36.0633 48.2378 35.6472Z" fill="#964711"/>
<path d="M28.4307 35.6472C26.3788 33.8879 23.6645 34.1555 21.6464 35.8155C21.1539 36.2199 20.5466 35.4435 21.0362 35.0406C23.3741 33.1182 26.6324 32.8116 29.0261 34.8627C29.507 35.273 28.9144 36.0633 28.4307 35.6472Z" fill="#964711"/>
<path d="M44.5053 65.1503C42.4688 68.5064 34.4701 68.5064 32.4337 65.1503C32.4337 65.1503 13.2529 64.7063 8.84106 75.9685H38.3349H38.4695H67.9634C63.5523 64.7063 44.5053 65.1503 44.5053 65.1503Z" fill="#398E3D"/>
<path d="M40.5762 9.37049C41.1482 7.61415 41.7209 5.85781 42.2922 4.10074C42.6414 3.02811 40.9593 2.56127 40.6123 3.62728C39.9962 5.5211 39.3801 7.41345 38.7633 9.30727C38.5471 9.30506 38.3281 9.30433 38.1068 9.3058C36.8224 8.20376 35.5381 7.10321 34.2537 6.00117C33.4053 5.27482 32.1592 6.49815 33.0164 7.23259C33.8545 7.95013 34.6904 8.66766 35.5285 9.3852C9.89726 10.9283 11.7668 33.3344 12.4285 36.4177C12.4285 36.4177 21.6417 35.7016 26.6858 29.1291C26.6858 29.1291 24.1038 34.0438 21.6425 35.7016C21.6425 35.7016 38.1038 33.4189 43.1435 23.4345C43.1435 23.4345 51.1386 34.1975 60.1158 35.2414L63.0823 35.8215C63.0823 35.8215 65.7973 10.8269 40.5762 9.37049Z" fill="#A86027"/>
</g>
<circle cx="38.7577" cy="37.8617" r="37.3617" stroke="#DAD8DB"/>
</svg>
