<svg width="18" height="18" viewBox="0 0 18 18" fill="none" xmlns="http://www.w3.org/2000/svg">
<path d="M8.0867 7.3699C8.20621 7.2523 8.34841 7.15896 8.50507 7.09526C8.66174 7.03156 8.82978 6.99877 8.9995 6.99877C9.16922 6.99877 9.33726 7.03156 9.49393 7.09526C9.6506 7.15896 9.79279 7.2523 9.91231 7.3699L15.8005 13.1289C15.9201 13.2465 16.0622 13.3398 16.2189 13.4035C16.3756 13.4672 16.5436 13.5 16.7133 13.5C16.8831 13.5 17.0511 13.4672 17.2078 13.4035C17.3644 13.3398 17.5066 13.2465 17.6261 13.1289C17.8656 12.8938 18 12.5758 18 12.2443C18 11.9129 17.8656 11.5949 17.6261 11.3598L11.7251 5.6008C11.0019 4.89592 10.0216 4.5 8.9995 4.5C7.97742 4.5 6.99712 4.89592 6.27395 5.6008L0.37286 11.3598C0.135345 11.5935 0.00144386 11.9089 2.28882e-05 12.238C-0.000955582 12.4032 0.0314751 12.5669 0.0954533 12.7197C0.159433 12.8726 0.253704 13.0116 0.37286 13.1289C0.492376 13.2465 0.634569 13.3398 0.791235 13.4035C0.947903 13.4672 1.11594 13.5 1.28566 13.5C1.45538 13.5 1.62342 13.4672 1.78009 13.4035C1.93676 13.3398 2.07895 13.2465 2.19847 13.1289L8.0867 7.3699Z" fill="#1C6586"/>
</svg>
