<svg width="77" height="76" viewBox="0 0 77 76" fill="none" xmlns="http://www.w3.org/2000/svg">
<mask id="mask0_949_1713" style="mask-type:alpha" maskUnits="userSpaceOnUse" x="0" y="0" width="77" height="76">
<circle cx="38.2057" cy="38.1385" r="37.8617" fill="white"/>
</mask>
<g mask="url(#mask0_949_1713)">
<path d="M15.9718 44.9249C15.9718 44.9249 10.2816 50.8035 12.223 58.2163C14.1645 65.629 9.57563 67.747 6.92822 68.0999C6.92822 68.0999 25.7488 71.2133 26.6532 55.7454C27.5582 40.2775 19.544 42.2231 15.9718 44.9249Z" fill="#966544"/>
<path d="M45.3199 59.3384H33.7285V74.5126H45.3199V59.3384Z" fill="#FDCC9B"/>
<path d="M20.8713 41.2237C20.8869 43.9297 18.7068 46.1338 16.0022 46.1507C13.2955 46.1684 11.0901 43.9876 11.0738 41.2823C11.0583 38.5763 13.2383 36.3694 15.9443 36.3546C18.6489 36.3383 20.8544 38.5198 20.8713 41.2237Z" fill="#FDCC9B"/>
<path d="M18.8169 41.2355C18.8275 42.8077 17.5596 44.0898 15.9888 44.0996C14.418 44.1081 13.1359 42.8423 13.126 41.2694C13.1162 39.6965 14.3834 38.4165 15.9542 38.4088C17.5278 38.3975 18.8077 39.6647 18.8169 41.2355Z" fill="#F4B882"/>
<path d="M67.9768 40.9461C67.993 43.6514 65.8123 45.8583 63.1063 45.8731C60.401 45.8908 58.1941 43.71 58.1786 41.0047C58.1623 38.2987 60.3431 36.094 63.0484 36.0777C65.7544 36.0608 67.9591 38.2415 67.9768 40.9461Z" fill="#FDCC9B"/>
<path d="M65.9209 40.9587C65.9322 42.5309 64.6643 43.8108 63.0935 43.8214C61.5227 43.8292 60.2407 42.5634 60.2308 40.9905C60.2209 39.4197 61.4867 38.1376 63.0617 38.1285C64.6325 38.1207 65.9118 39.3865 65.9209 40.9587Z" fill="#F4B882"/>
<path d="M62.9645 42.6928C63.028 53.1667 54.5083 61.7859 44.0345 61.8481L35.0171 61.8989C24.5432 61.9625 15.924 53.4427 15.8604 42.971L15.8138 34.7753C15.751 24.3001 24.2693 15.6808 34.7417 15.6194L43.7613 15.5658C54.2351 15.505 62.8565 24.0226 62.9172 34.4972L62.9645 42.6928Z" fill="#FDCC9B"/>
<path d="M42.1502 47.8827C42.1552 48.7941 40.9868 49.5417 39.5416 49.5509C38.0951 49.5594 36.9175 48.8273 36.9119 47.9131C36.9062 47.0016 38.076 46.2547 39.5219 46.2477C40.9663 46.2378 42.1432 46.9713 42.1502 47.8827Z" fill="#F4B882"/>
<path d="M39.5303 52.6152H33.0466C33.0466 52.6152 33.6206 57.0346 39.5303 57.0346C45.4421 57.0346 46.0154 52.6152 46.0154 52.6152H39.5303Z" fill="white"/>
<path d="M50.8478 42.8609C50.874 42.0652 51.2121 40.93 52.1701 40.8707C53.1211 40.8114 53.4684 42.1598 53.4917 42.8609C53.5101 43.4285 54.3925 43.4306 54.3742 42.8609C54.3304 41.5365 53.6491 40.08 52.1701 39.9883C50.6961 39.8965 50.0042 41.6812 49.9654 42.8609C49.947 43.4306 50.8295 43.4285 50.8478 42.8609Z" fill="#352215"/>
<path d="M25.2963 42.8609C25.3224 42.066 25.6613 40.9307 26.6186 40.8707C27.5696 40.8114 27.9176 42.1591 27.9409 42.8609C27.9593 43.4285 28.8417 43.4306 28.8234 42.8609C28.7796 41.5358 28.0976 40.08 26.6186 39.9883C25.1445 39.8965 24.4527 41.6819 24.4139 42.8609C24.3955 43.4306 25.278 43.4285 25.2963 42.8609Z" fill="#352215"/>
<path d="M45.3199 65.2371C44.3096 66.9018 39.2838 73.807 39.2838 73.807C39.2838 73.807 34.6738 66.7952 33.7285 65.2371C33.7285 65.2371 15.3089 64.8107 11.073 75.6256H39.3946H39.5245H67.8468C63.611 64.8114 45.3199 65.2371 45.3199 65.2371Z" fill="#A9BF52"/>
<path d="M49.4295 37.1905C51.1055 36.3059 53.2093 36.3461 54.7095 37.5463C55.1309 37.8816 55.7303 37.2893 55.306 36.949C53.4938 35.5011 51.0469 35.3839 49.0045 36.4619C48.5237 36.716 48.9501 37.4425 49.4295 37.1905Z" fill="#6D4D42"/>
<path d="M29.3474 37.1905C27.6707 36.3059 25.5669 36.3461 24.0667 37.5463C23.6466 37.8816 23.0472 37.2893 23.4701 36.949C25.2824 35.5011 27.7293 35.3839 29.7724 36.4619C30.2524 36.716 29.8267 37.4425 29.3474 37.1905Z" fill="#6D4D42"/>
<path d="M63.7529 39.9849C63.7529 39.9849 69.148 8 40.2743 8C9.46553 8 15.0138 39.1434 15.0138 39.1434C15.0138 39.1434 19.4452 35.5853 24.2889 34.2475L25.9197 27.4906L26.3242 34.1599L31.9021 33.6248L33.1475 24.4676L35.0543 33.4469C35.0543 33.4469 59.3596 32.8249 63.7529 39.9849Z" fill="#8C5438"/>
</g>
<circle cx="38.2057" cy="38.1385" r="37.3617" stroke="#DAD8DB"/>
</svg>
