<svg width="77" height="76" viewBox="0 0 77 76" fill="none" xmlns="http://www.w3.org/2000/svg">
<mask id="mask0_949_1680" style="mask-type:alpha" maskUnits="userSpaceOnUse" x="0" y="0" width="77" height="76">
<circle cx="38.2057" cy="37.8617" r="37.8617" fill="white"/>
</mask>
<g mask="url(#mask0_949_1680)">
<path d="M44.1508 59.0508H32.6948V70.7119H44.1508V59.0508Z" fill="#BF8158"/>
<path d="M19.9872 41.1483C20.0032 43.8219 17.8479 46.0017 15.1756 46.017C12.4998 46.0351 10.3201 43.8799 10.3048 41.2055C10.2887 38.5318 12.444 36.35 15.1184 36.336C17.7921 36.32 19.9711 38.476 19.9872 41.1483Z" fill="#BF8158"/>
<path d="M17.9575 41.1595C17.9679 42.7133 16.7148 43.9797 15.1624 43.9902C13.6099 43.9979 12.3428 42.7468 12.3331 41.193C12.324 39.6392 13.5757 38.3735 15.1289 38.3658C16.6834 38.3546 17.9477 39.6071 17.9575 41.1595Z" fill="#AA6944"/>
<path d="M66.5423 40.8741C66.559 43.5478 64.4031 45.7289 61.7294 45.7436C59.0557 45.761 56.8746 43.6057 56.8592 40.932C56.8432 38.2583 58.9985 36.0786 61.6722 36.0626C64.3452 36.0459 66.5249 38.2011 66.5423 40.8741Z" fill="#BF8158"/>
<path d="M64.5112 40.8866C64.5209 42.4404 63.2685 43.7054 61.7161 43.7152C60.1636 43.7235 58.8965 42.4725 58.8868 40.918C58.877 39.3655 60.128 38.0992 61.6847 38.0894C63.2371 38.0817 64.5021 39.3327 64.5112 40.8866Z" fill="#AA6944"/>
<path d="M61.5886 42.6011C61.6514 52.9526 53.2319 61.4711 42.8797 61.5319L33.9676 61.5821C23.6161 61.6449 15.0975 53.2254 15.0354 42.8753L14.9894 34.7753C14.9273 24.4231 23.3474 15.9046 33.6969 15.8439L42.611 15.7908C52.9625 15.7308 61.4832 24.1489 61.5432 34.5011L61.5886 42.6011Z" fill="#BF8158"/>
<path d="M41.018 47.7286C41.0229 48.6308 39.8681 49.3697 38.4399 49.3788C37.0102 49.3872 35.8464 48.6622 35.8408 47.7593C35.8353 46.8579 36.9907 46.1204 38.4203 46.1134C39.8479 46.1029 41.011 46.8293 41.018 47.7286Z" fill="#AA6944"/>
<path d="M52.6631 42.7656C52.6631 44.0878 51.8789 45.1692 50.9209 45.1692C49.9615 45.1692 49.178 44.0871 49.178 42.7656C49.178 41.4448 49.9615 40.3633 50.9209 40.3633C51.8789 40.3633 52.6631 41.4448 52.6631 42.7656Z" fill="#352215"/>
<path d="M27.4109 42.7656C27.4109 44.0878 26.6267 45.1692 25.668 45.1692C24.71 45.1692 23.9258 44.0871 23.9258 42.7656C23.9258 41.4448 24.71 40.3633 25.668 40.3633C26.6267 40.3633 27.4109 41.4448 27.4109 42.7656Z" fill="#352215"/>
<path d="M47.6932 36.8808C49.6406 35.2111 52.2166 35.4651 54.1312 37.0405C54.5987 37.4243 55.175 36.6875 54.7103 36.3051C52.4915 34.4806 49.3992 34.1896 47.1274 36.1363C46.6718 36.5263 47.2341 37.2757 47.6932 36.8808Z" fill="#350304"/>
<path d="M28.8956 36.8808C26.9482 35.2111 24.3722 35.4651 22.457 37.0405C21.9895 37.4243 21.4132 36.6875 21.8779 36.3051C24.0966 34.4806 27.189 34.1896 29.4608 36.1363C29.9164 36.5263 29.3547 37.2757 28.8956 36.8808Z" fill="#350304"/>
<path d="M44.1508 64.8807C42.2181 68.0658 34.6268 68.0658 32.6948 64.8807C32.6948 64.8807 14.4903 64.4592 10.304 75.1484H38.2947H38.4231H66.4139C62.2275 64.4592 44.1508 64.8807 44.1508 64.8807Z" fill="#00ACC2"/>
<path d="M38.6064 52.1348H32.1985C32.1985 52.1348 32.7657 56.5026 38.6064 56.5026C44.4492 56.5026 45.0158 52.1348 45.0158 52.1348H38.6064Z" fill="white"/>
<path d="M61.4369 18.7177C60.1356 6.99999 38.1202 7 38.1202 7C38.1202 7 18.3159 6.99999 14.8042 18.7177C13.9244 21.6516 10.516 31.1288 13.5978 36.1413C16.3497 43.7152 15.5536 41.1231 16.0657 43.9901C16.0657 43.9901 18.1205 40.9954 17.8016 38.3141C17.4423 35.295 18.8238 32.7197 18.4219 29.5143C18.0207 26.3096 19.0917 24.0992 24.7196 23.1978C30.3468 22.2963 33.4294 23.7992 38.1195 23.7992C42.8096 23.7992 45.8922 22.297 51.5201 23.1978C57.1473 24.0992 58.2197 26.3096 57.8171 29.5143C57.4152 32.7197 58.796 35.295 58.4367 38.3141C58.1185 40.9954 60.7196 43.9901 60.7196 43.9901C60.5452 42.2507 62.6412 36.1413 62.6412 36.1413C65.7251 31.1288 61.7697 21.7137 61.4369 18.7177Z" fill="#350304"/>
</g>
<circle cx="38.2057" cy="37.8617" r="37.3617" stroke="#DAD8DB"/>
</svg>
