<svg width="77" height="76" viewBox="0 0 77 76" fill="none" xmlns="http://www.w3.org/2000/svg">
<mask id="mask0_791_1766" style="mask-type:alpha" maskUnits="userSpaceOnUse" x="0" y="0" width="77" height="76">
<circle cx="38.3097" cy="37.8617" r="37.8617" fill="white"/>
</mask>
<g mask="url(#mask0_791_1766)">
<path d="M45.0543 58.7065H32.9827V70.9936H45.0543V58.7065Z" fill="#BF8158"/>
<path d="M19.593 39.8431C19.6099 42.6603 17.339 44.957 14.5232 44.9732C11.7038 44.9915 9.40713 42.7213 9.39096 39.9034C9.37478 37.0862 11.645 34.7873 14.4629 34.7726C17.2802 34.7556 19.5761 37.0273 19.593 39.8431Z" fill="#BF8158"/>
<path d="M17.4542 39.8549C17.4652 41.4928 16.1448 42.8272 14.509 42.8375C12.8733 42.8463 11.5382 41.5281 11.5279 39.8909C11.5183 38.2529 12.8372 36.92 14.4737 36.9112C16.1117 36.8994 17.4439 38.2191 17.4542 39.8549Z" fill="#AA6944"/>
<path d="M68.6477 39.5545C68.6654 42.3717 66.3937 44.6692 63.5765 44.6853C60.7585 44.7037 58.4604 42.432 58.4434 39.6148C58.4273 36.7969 60.6975 34.5002 63.5162 34.484C66.3326 34.4663 68.6286 36.7373 68.6477 39.5545Z" fill="#BF8158"/>
<path d="M66.5067 39.5675C66.5177 41.2047 65.1973 42.5383 63.5615 42.5486C61.9258 42.5574 60.5907 41.2393 60.5804 39.6006C60.5701 37.9648 61.8883 36.6304 63.5284 36.6202C65.1642 36.6121 66.4971 37.9302 66.5067 39.5675Z" fill="#AA6944"/>
<path d="M63.4279 41.3729C63.4933 52.28 54.6212 61.2557 43.7148 61.3197L34.3236 61.3726C23.4158 61.4388 14.44 52.5674 14.3746 41.6618L14.326 33.1271C14.2606 22.2185 23.1327 13.2427 34.0384 13.1788L43.4303 13.1229C54.3374 13.0589 63.3154 21.9303 63.3786 32.8367L63.4279 41.3729Z" fill="#BF8158"/>
<path d="M41.7526 46.7775C41.7578 47.7273 40.5411 48.5051 39.0362 48.5154C37.5298 48.5243 36.3042 47.7612 36.2976 46.8091C36.2925 45.86 37.5092 45.0829 39.0156 45.0748C40.5198 45.0645 41.746 45.8291 41.7526 46.7775Z" fill="#AA6944"/>
<path d="M54.0228 41.5478C54.0228 42.941 53.1965 44.0798 52.1871 44.0798C51.1769 44.0798 50.3506 42.9402 50.3506 41.5478C50.3506 40.1547 51.1769 39.0166 52.1871 39.0166C53.1965 39.0159 54.0228 40.1547 54.0228 41.5478Z" fill="#352215"/>
<path d="M27.4154 41.5478C27.4154 42.941 26.589 44.0798 25.5789 44.0798C24.5695 44.0798 23.7432 42.9402 23.7432 41.5478C23.7432 40.1547 24.5695 39.0166 25.5789 39.0166C26.589 39.0159 27.4154 40.1547 27.4154 41.5478Z" fill="#352215"/>
<path d="M48.7861 35.3476C50.838 33.5883 53.5522 33.8559 55.5703 35.5152C56.0629 35.9188 56.6701 35.1432 56.1805 34.7396C53.8426 32.8171 50.5843 32.5112 48.1906 34.5617C47.7098 34.9726 48.3023 35.7629 48.7861 35.3476Z" fill="#2D2C2B"/>
<path d="M28.9795 35.3476C26.9276 33.5883 24.2133 33.8559 22.1953 35.5152C21.7027 35.9188 21.0954 35.1432 21.5851 34.7396C23.9229 32.8171 27.1812 32.5112 29.575 34.5617C30.055 34.9726 29.4632 35.7629 28.9795 35.3476Z" fill="#2D2C2B"/>
<path d="M32.5954 51.5867C34.4341 55.8448 43.5275 55.8918 45.1728 51.4521C45.4265 50.7699 44.3384 50.4802 44.0885 51.1536C42.7651 54.7214 34.9906 54.3171 33.5666 51.0184C33.2784 50.3552 32.3094 50.9279 32.5954 51.5867Z" fill="#A9703B"/>
<path d="M45.0544 64.8495C43.0179 68.2056 35.0192 68.2056 32.9827 64.8495C32.9827 64.8495 13.8012 64.4055 9.39014 75.6684H38.8833H39.0185H68.5124C64.1006 64.4055 45.0544 64.8495 45.0544 64.8495Z" fill="#FCB316"/>
<path d="M39.2147 7.8661C39.2147 7.8661 10.3524 6.99859 12.0719 35.7014C12.0719 35.7014 14.9465 35.9264 15.6868 39.5854C15.6868 39.5854 15.5486 25.9779 19.2818 24.2856C23.0143 22.5924 32.3621 26.1478 39.2147 26.1478C46.0673 26.1478 55.4173 22.5924 59.1491 24.2856C62.8816 25.9787 62.7426 39.5854 62.7426 39.5854C63.4829 35.9256 66.359 35.7014 66.359 35.7014C68.0785 6.99932 39.2147 7.8661 39.2147 7.8661Z" fill="#350304"/>
</g>
<circle cx="38.3097" cy="37.8617" r="37.3617" stroke="#DAD8DB"/>
</svg>
