<svg width="76" height="76" viewBox="0 0 76 76" fill="none" xmlns="http://www.w3.org/2000/svg">
<mask id="mask0_791_1836" style="mask-type:alpha" maskUnits="userSpaceOnUse" x="0" y="0" width="76" height="76">
<circle cx="37.8617" cy="38.1385" r="37.8617" fill="white"/>
</mask>
<g mask="url(#mask0_791_1836)">
<path d="M27.6168 49.2292C25.6953 49.2292 23.9083 49.7892 22.3943 50.7425C22.4872 50.252 22.5403 49.7473 22.5403 49.2299C22.5403 44.7474 18.9056 41.1147 14.4237 41.1147C9.94123 41.1147 6.30786 44.7474 6.30786 49.2299C6.30786 51.6172 7.34486 53.7578 8.98576 55.2421C7.77582 56.6597 7.04148 58.4948 7.04148 60.505C7.04148 64.9875 10.6749 68.6208 15.1574 68.6208C17.4071 68.6208 19.4428 67.7043 20.9129 66.2258C22.6693 67.8681 25.0219 68.881 27.6168 68.881C33.0435 68.881 37.4438 64.4821 37.4438 59.0547C37.4438 53.6274 33.0442 49.2292 27.6168 49.2292Z" fill="#350304"/>
<path d="M47.5301 49.2292C49.4517 49.2292 51.2386 49.7892 52.7526 50.7425C52.6597 50.252 52.6066 49.7473 52.6066 49.2299C52.6066 44.7474 56.2414 41.1147 60.7232 41.1147C65.2057 41.1147 68.839 44.7474 68.839 49.2299C68.839 51.6172 67.8021 53.7578 66.1612 55.2421C67.3711 56.6597 68.1054 58.4948 68.1054 60.505C68.1054 64.9875 64.4721 68.6208 59.9895 68.6208C57.7398 68.6208 55.7041 67.7043 54.234 66.2258C52.4776 67.8681 50.125 68.881 47.5301 68.881C42.1034 68.881 37.7031 64.4821 37.7031 59.0547C37.7031 53.6274 42.1034 49.2292 47.5301 49.2292Z" fill="#350304"/>
<path d="M43.2063 59.0547H31.5684V70.901H43.2063V59.0547Z" fill="#BF8158"/>
<path d="M18.6585 40.8682C18.6741 43.5844 16.4853 45.7987 13.7699 45.8143C11.0523 45.8327 8.83794 43.6432 8.82235 40.9264C8.80675 38.2102 10.9956 35.9938 13.7117 35.9796C16.4272 35.9633 18.6415 38.1535 18.6585 40.8682Z" fill="#BF8158"/>
<path d="M16.5968 40.8801C16.6075 42.4587 15.3344 43.7452 13.7573 43.7558C12.1802 43.7636 10.893 42.4927 10.8831 40.9142C10.8732 39.3356 12.1455 38.0499 13.7226 38.0421C15.3026 38.0307 16.5869 39.303 16.5968 40.8801Z" fill="#AA6944"/>
<path d="M65.9534 40.5897C65.9697 43.3059 63.7802 45.5216 61.0626 45.5365C58.3464 45.5542 56.1307 43.3647 56.1151 40.6485C56.0988 37.9324 58.2883 35.7181 61.0045 35.7018C63.722 35.6847 65.9357 37.8743 65.9534 40.5897Z" fill="#BF8158"/>
<path d="M63.8893 40.6029C63.9007 42.1814 62.6277 43.4665 61.0506 43.4764C59.4735 43.4849 58.1863 42.214 58.1763 40.6348C58.1664 39.0577 59.4373 37.7712 61.0187 37.7613C62.5958 37.7535 63.8808 39.0244 63.8893 40.6029Z" fill="#AA6944"/>
<path d="M60.9207 42.3443C60.9844 52.8602 52.4305 61.514 41.9139 61.5757L32.8603 61.6267C22.3444 61.6905 13.6905 53.1373 13.6267 42.6228L13.5799 34.3943C13.5176 23.8776 22.0708 15.2238 32.5853 15.1621L41.641 15.1082C52.1569 15.0473 60.8129 23.5991 60.8739 34.1157L60.9207 42.3443Z" fill="#BF8158"/>
<path d="M40.0231 47.5531C40.028 48.4696 38.8549 49.2203 37.404 49.2295C35.9516 49.238 34.7694 48.5015 34.7637 47.5843C34.758 46.6685 35.9318 45.9193 37.3842 45.9122C38.8351 45.9016 40.0167 46.6395 40.0231 47.5531Z" fill="#AA6944"/>
<path d="M37.3925 52.3062H30.8828C30.8828 52.3062 31.4591 56.7433 37.3925 56.7433C43.3281 56.7433 43.9037 52.3062 43.9037 52.3062H37.3925Z" fill="white"/>
<path d="M51.8537 42.5112C51.8537 43.8544 51.057 44.9531 50.0838 44.9531C49.1092 44.9531 48.3132 43.8537 48.3132 42.5112C48.3132 41.1695 49.1092 40.0708 50.0838 40.0708C51.057 40.0708 51.8537 41.1695 51.8537 42.5112Z" fill="#352215"/>
<path d="M26.2004 42.5112C26.2004 43.8544 25.4037 44.9531 24.4298 44.9531C23.4566 44.9531 22.6592 43.8537 22.6592 42.5112C22.6592 41.1695 23.4566 40.0708 24.4298 40.0708C25.4037 40.0708 26.2004 41.1695 26.2004 42.5112Z" fill="#352215"/>
<path d="M43.2061 64.9779C42.1918 66.6492 39.6437 70.2479 37.1458 70.1926C34.8089 70.1408 32.5173 66.5429 31.5682 64.9779C31.5682 64.9779 13.0746 64.5498 8.82178 75.4087H37.2571H37.3875H65.8236C61.57 64.5498 43.2061 64.9779 43.2061 64.9779Z" fill="#FCB316"/>
<path d="M47.3316 36.8187C49.0143 35.9306 51.1266 35.971 52.6328 37.1759C53.056 37.5126 53.6578 36.9179 53.2318 36.5763C51.4122 35.1225 48.9555 35.0049 46.9049 36.0879C46.4229 36.3424 46.8503 37.0717 47.3316 36.8187Z" fill="#350304"/>
<path d="M27.1694 36.8187C25.486 35.9306 23.3737 35.971 21.8675 37.1759C21.4458 37.5126 20.844 36.9179 21.2686 36.5763C23.0881 35.1225 25.5448 35.0049 27.5961 36.0879C28.0774 36.3424 27.65 37.0717 27.1694 36.8187Z" fill="#350304"/>
<path d="M62.0744 26.8263C62.6153 25.7397 62.9264 24.5191 62.9264 23.222C62.9264 18.7395 59.2916 15.1069 54.8098 15.1069C53.4929 15.1069 52.2539 15.4272 51.1538 15.9837C49.8191 13.3292 47.0781 11.504 43.9041 11.504C42.0591 11.504 40.3643 12.1263 39.0013 13.1626C37.0726 9.85669 33.4973 7.62891 29.394 7.62891C23.8965 7.62891 19.3424 11.6195 18.4436 16.8605C14.061 16.976 10.5432 20.5555 10.5432 24.965C10.5432 26.7079 11.0975 28.3184 12.0317 29.6403C10.3767 30.3151 9.20996 31.9383 9.20996 33.8357C9.20996 36.3378 11.2379 38.3665 13.7407 38.3665C16.2435 38.3665 18.2721 36.3378 18.2721 33.8357C18.2721 33.5699 18.2444 33.3112 18.2005 33.0582C18.3536 33.0667 18.5046 33.0816 18.6591 33.0816C21.5922 33.0816 24.1545 31.5208 25.5806 29.1888C26.7721 29.624 28.0523 29.8742 29.3947 29.8742C33.0203 29.8742 36.2319 28.1319 38.2627 25.4463C39.7235 26.861 41.7103 27.735 43.9048 27.735C45.2218 27.735 46.4615 27.4139 47.5616 26.8575C48.8955 29.512 51.6365 31.3379 54.8105 31.3379C54.8162 31.3379 54.8212 31.3372 54.8261 31.3372C54.8198 31.4421 54.8105 31.5456 54.8105 31.6519C54.8105 34.5431 57.1546 36.8865 60.0451 36.8865C62.9364 36.8865 65.2804 34.5431 65.2804 31.6519C65.279 29.4808 63.957 27.6188 62.0744 26.8263Z" fill="#350304"/>
</g>
<circle cx="37.8617" cy="38.1385" r="37.3617" stroke="#DAD8DB"/>
</svg>
