<svg width="18" height="18" viewBox="0 0 18 18" fill="none" xmlns="http://www.w3.org/2000/svg">
<path d="M10.6301 9.9133C10.7477 9.79379 10.841 9.65159 10.9047 9.49493C10.9684 9.33826 11.0012 9.17022 11.0012 9.0005C11.0012 8.83078 10.9684 8.66274 10.9047 8.50607C10.841 8.3494 10.7477 8.20721 10.6301 8.08769L4.87113 2.19946C4.75353 2.07995 4.66019 1.93775 4.59649 1.78109C4.53279 1.62442 4.5 1.45638 4.5 1.28666C4.5 1.11694 4.53279 0.948899 4.59649 0.792232C4.66019 0.635564 4.75353 0.493371 4.87113 0.373854C5.10621 0.134403 5.42421 0 5.75568 0C6.08715 0 6.40515 0.134403 6.64023 0.373854L12.3992 6.27494C13.1041 6.99812 13.5 7.97841 13.5 9.0005C13.5 10.0226 13.1041 11.0029 12.3992 11.7261L6.64023 17.6271C6.40653 17.8647 6.0911 17.9986 5.76195 18C5.59683 18.001 5.43314 17.9685 5.28027 17.9045C5.12741 17.8406 4.98837 17.7463 4.87113 17.6271C4.75353 17.5076 4.66019 17.3654 4.59649 17.2088C4.53279 17.0521 4.5 16.8841 4.5 16.7143C4.5 16.5446 4.53279 16.3766 4.59649 16.2199C4.66019 16.0632 4.75353 15.9211 4.87113 15.8015L10.6301 9.9133Z" fill="white"/>
</svg>
