<svg width="24" height="24" viewBox="0 0 24 24" fill="none" xmlns="http://www.w3.org/2000/svg">
<path d="M9.82653 13.2177C9.66973 13.0584 9.54528 12.8688 9.46035 12.6599C9.37542 12.451 9.33169 12.227 9.33169 12.0007C9.33169 11.7744 9.37542 11.5503 9.46035 11.3414C9.54528 11.1325 9.66973 10.9429 9.82653 10.7836L17.5052 2.93262C17.662 2.77326 17.7864 2.58367 17.8713 2.37478C17.9563 2.16589 18 1.94184 18 1.71555C18 1.48925 17.9563 1.2652 17.8713 1.05631C17.7864 0.847419 17.662 0.657828 17.5052 0.498473C17.1917 0.179204 16.7677 0 16.3258 0C15.8838 0 15.4598 0.179204 15.1464 0.498473L7.46774 8.36659C6.5279 9.33082 6 10.6379 6 12.0007C6 13.3634 6.5279 14.6705 7.46774 15.6347L15.1464 23.5029C15.458 23.8195 15.8785 23.9981 16.3174 24C16.5376 24.0013 16.7558 23.958 16.9596 23.8727C17.1635 23.7874 17.3488 23.6617 17.5052 23.5029C17.662 23.3435 17.7864 23.1539 17.8713 22.945C17.9563 22.7361 18 22.5121 18 22.2858C18 22.0595 17.9563 21.8354 17.8713 21.6265C17.7864 21.4177 17.662 21.2281 17.5052 21.0687L9.82653 13.2177Z" fill="black"/>
</svg>
