<svg width="24" height="24" viewBox="0 0 24 24" fill="none" xmlns="http://www.w3.org/2000/svg">
<path d="M15.3981 9.89808L13.2962 12L15.3981 14.1019C15.7565 14.4603 15.7565 15.0397 15.3981 15.3981C15.2193 15.5768 14.9847 15.6667 14.75 15.6667C14.5153 15.6667 14.2807 15.5768 14.1019 15.3981L12 13.2962L9.89808 15.3981C9.71933 15.5768 9.48467 15.6667 9.25 15.6667C9.01533 15.6667 8.78067 15.5768 8.60192 15.3981C8.2435 15.0397 8.2435 14.4603 8.60192 14.1019L10.7038 12L8.60192 9.89808C8.2435 9.53967 8.2435 8.96033 8.60192 8.60192C8.96033 8.2435 9.53967 8.2435 9.89808 8.60192L12 10.7038L14.1019 8.60192C14.4603 8.2435 15.0397 8.2435 15.3981 8.60192C15.7565 8.96033 15.7565 9.53967 15.3981 9.89808ZM23 12C23 18.0656 18.0656 23 12 23C5.93442 23 1 18.0656 1 12C1 5.93442 5.93442 1 12 1C18.0656 1 23 5.93442 23 12ZM21.1667 12C21.1667 6.9455 17.0545 2.83333 12 2.83333C6.9455 2.83333 2.83333 6.9455 2.83333 12C2.83333 17.0545 6.9455 21.1667 12 21.1667C17.0545 21.1667 21.1667 17.0545 21.1667 12Z" fill="black"/>
</svg>
