<svg width="18" height="18" viewBox="0 0 18 18" fill="none" xmlns="http://www.w3.org/2000/svg">
<path d="M9.9133 10.6301C9.79379 10.7477 9.65159 10.841 9.49493 10.9047C9.33826 10.9684 9.17022 11.0012 9.0005 11.0012C8.83078 11.0012 8.66274 10.9684 8.50607 10.9047C8.3494 10.841 8.20721 10.7477 8.08769 10.6301L2.19946 4.87113C2.07995 4.75353 1.93775 4.66019 1.78109 4.59649C1.62442 4.53279 1.45638 4.5 1.28666 4.5C1.11694 4.5 0.948899 4.53279 0.792232 4.59649C0.635564 4.66019 0.493371 4.75353 0.373854 4.87113C0.134403 5.10621 0 5.42421 0 5.75568C0 6.08715 0.134403 6.40515 0.373854 6.64023L6.27494 12.3992C6.99812 13.1041 7.97841 13.5 9.0005 13.5C10.0226 13.5 11.0029 13.1041 11.7261 12.3992L17.6271 6.64023C17.8647 6.40653 17.9986 6.0911 18 5.76195C18.001 5.59683 17.9685 5.43314 17.9045 5.28027C17.8406 5.12741 17.7463 4.98837 17.6271 4.87113C17.5076 4.75353 17.3654 4.66019 17.2088 4.59649C17.0521 4.53279 16.8841 4.5 16.7143 4.5C16.5446 4.5 16.3766 4.53279 16.2199 4.59649C16.0632 4.66019 15.9211 4.75353 15.8015 4.87113L9.9133 10.6301Z" fill="black"/>
</svg>
