<svg width="16" height="16" viewBox="0 0 16 16" fill="none" xmlns="http://www.w3.org/2000/svg">
<g clip-path="url(#clip0_508_961)">
<path d="M8.00008 2.66667C8.73646 2.66667 9.33341 2.06971 9.33341 1.33333C9.33341 0.596954 8.73646 0 8.00008 0C7.2637 0 6.66675 0.596954 6.66675 1.33333C6.66675 2.06971 7.2637 2.66667 8.00008 2.66667Z" fill="#767676"/>
<path d="M8.00008 9.33317C8.73646 9.33317 9.33341 8.73622 9.33341 7.99984C9.33341 7.26346 8.73646 6.6665 8.00008 6.6665C7.2637 6.6665 6.66675 7.26346 6.66675 7.99984C6.66675 8.73622 7.2637 9.33317 8.00008 9.33317Z" fill="#767676"/>
<path d="M8.00008 16.0002C8.73646 16.0002 9.33341 15.4032 9.33341 14.6668C9.33341 13.9304 8.73646 13.3335 8.00008 13.3335C7.2637 13.3335 6.66675 13.9304 6.66675 14.6668C6.66675 15.4032 7.2637 16.0002 8.00008 16.0002Z" fill="#767676"/>
</g>
<defs>
<clipPath id="clip0_508_961">
<rect width="16" height="16" fill="white"/>
</clipPath>
</defs>
</svg>
