<svg width="18" height="18" viewBox="0 0 18 18" fill="none" xmlns="http://www.w3.org/2000/svg">
<g clip-path="url(#clip0_1435_435)">
<path d="M0.0367498 9.225L0.5655 5.475C0.695469 4.58245 1.14129 3.76613 1.82198 3.17435C2.50267 2.58257 3.37305 2.25459 4.275 2.25H12V13.938L10.7805 16.413C10.5384 16.9022 10.1288 17.2883 9.62609 17.5009C9.1234 17.7136 8.56107 17.7387 8.0414 17.5718C7.52174 17.4048 7.07927 17.0569 6.79451 16.5912C6.50974 16.1256 6.4016 15.5732 6.48975 15.0345L6.74175 13.5H3.75C3.21317 13.5 2.68259 13.3848 2.19413 13.1621C1.70567 12.9394 1.27072 12.6144 0.91869 12.2091C0.566656 11.8038 0.305743 11.3277 0.153591 10.8128C0.00143909 10.298 -0.0384064 9.75655 0.0367498 9.225Z" fill="#767676"/>
<path d="M18 6V9.75C17.9988 10.7442 17.6033 11.6973 16.9003 12.4003C16.1973 13.1033 15.2442 13.4988 14.25 13.5H13.5V2.25H14.25C15.2442 2.25119 16.1973 2.64666 16.9003 3.34966C17.6033 4.05267 17.9988 5.0058 18 6Z" fill="#767676"/>
</g>
<defs>
<clipPath id="clip0_1435_435">
<rect width="18" height="18" fill="white" transform="matrix(-1 0 0 1 18 0)"/>
</clipPath>
</defs>
</svg>
