<svg width="24" height="24" viewBox="0 0 24 24" fill="none" xmlns="http://www.w3.org/2000/svg">
<path d="M4.60816 9.07648L5.07201 8.02401L5.81868 6.32984L5.81871 6.32977C6.10588 5.67837 6.25082 4.98974 6.25082 4.27981V3.66648V2.91648H7.00082H9.50082H10.2508V3.66648V4.27981C10.2508 4.99052 10.3957 5.67832 10.6829 6.32977L10.683 6.32984L11.4294 8.02356L4.60816 9.07648ZM4.60816 9.07648H4.73107M4.60816 9.07648H4.73107M4.73107 9.07648C4.70923 9.17519 4.68996 9.27413 4.67311 9.37319L4.52411 10.249H5.41248H11.0908H11.981L11.8299 9.3717C11.7518 8.91779 11.6241 8.46457 11.4296 8.02401L4.73107 9.07648ZM20.8893 10.901C21.1919 11.2771 21.3265 11.7606 21.2602 12.2398L20.375 17.6018L20.3737 17.6098L20.3725 17.6178C20.0781 19.6759 18.2675 21.249 16.1675 21.249H7.85998C5.76145 21.249 3.94959 19.6783 3.65243 17.6003L3.65128 17.5923L3.64997 17.5843L2.77052 12.2577C2.69767 11.7365 2.8498 11.2324 3.17899 10.853L3.17907 10.8529C3.375 10.627 3.63744 10.459 3.9439 10.3552L4.39929 10.2009L4.44926 9.72276C4.51283 9.11434 4.66936 8.52296 4.91919 7.95825L4.91962 7.95728L5.66629 6.26312L5.66631 6.26306C5.94325 5.63456 6.08415 4.96574 6.08415 4.27981V3.66648V2.91648H5.33415C5.28753 2.91648 5.25082 2.87976 5.25082 2.83315C5.25082 2.78653 5.28753 2.74981 5.33415 2.74981H11.1675C11.2141 2.74981 11.2508 2.78653 11.2508 2.83315C11.2508 2.87976 11.2141 2.91648 11.1675 2.91648H10.4175V3.66648V4.27981C10.4175 4.96665 10.5584 5.63463 10.8353 6.26306L10.8353 6.26312L11.582 7.95728L11.5823 7.95784C11.7097 8.24645 11.8091 8.55283 11.8917 8.87576L12.2868 10.4193L12.0019 10.4194L6.82859 10.4214L5.12237 10.4221L4.64357 10.4222L4.51701 10.4223L4.48436 10.4223L4.47332 10.4223H4.46264L4.45197 10.4226C4.01748 10.435 3.60246 10.6185 3.30392 10.962L3.30391 10.962L3.30162 10.9646C3.002 11.3126 2.86629 11.7653 2.93268 12.2253L2.93376 12.2328L2.935 12.2403L3.81458 17.5677C4.10649 19.5795 5.837 21.0831 7.85915 21.0831H16.1666C18.1857 21.0831 19.9182 19.5818 20.2079 17.5851L21.0925 12.2219L21.0939 12.2133L21.0951 12.2047C21.1585 11.7557 21.0161 11.3056 20.7225 10.9646L20.72 10.9617C20.4162 10.6125 19.9867 10.4165 19.5241 10.4165H19.5239L19.5241 11.1665C19.5239 10.4165 19.5238 10.4165 19.5237 10.4165H19.5232L19.5211 10.4165L19.513 10.4165L19.4807 10.4165L19.3549 10.4165L18.8775 10.4167L17.1735 10.4174L12.5872 10.4192L13.2882 9.02715C13.374 8.85682 13.4973 8.61642 13.6002 8.41684L13.7302 8.16504L13.7691 8.08986L13.7796 8.06959L13.7824 8.06436L13.783 8.06305L13.7832 8.06272L13.7832 8.06265L13.7833 8.06263L13.1175 7.71731L13.7833 8.06263L13.7836 8.06188C14.6196 6.4457 15.713 4.90293 16.8247 3.8913C17.9867 2.83396 18.9116 2.5715 19.5511 2.84936L19.5516 2.84957C19.7478 2.93465 20.0557 3.13308 20.2452 3.64854L20.2454 3.64921C20.4285 4.14573 20.4729 4.91092 20.3108 5.90989C20.1512 6.8935 19.8022 8.03697 19.2729 9.24567L18.8907 10.1188L19.8292 10.285C20.2294 10.3559 20.5879 10.5531 20.8473 10.8526L20.8893 10.901ZM22.0016 12.3531C22.0673 11.8933 22.0031 11.4303 21.8238 11.0128L22.0016 12.3531ZM15.7146 6.44982L15.1088 6.14693L14.7459 6.71881C14.4712 7.15169 14.1985 7.62154 13.9314 8.13753L13.9314 8.13765L13.9284 8.14325L13.9173 8.1647L13.8762 8.24376C13.8414 8.31071 13.7931 8.40382 13.739 8.50852C13.6313 8.71693 13.4988 8.97469 13.4045 9.16296L12.8602 10.249H14.075H18.1508H18.6225L18.8268 9.82382C19.4878 8.44833 19.8945 7.20854 20.0955 6.18734C20.2893 5.20237 20.3135 4.31333 20.0896 3.70557L20.0895 3.70535C20.0199 3.51652 19.8606 3.16505 19.4857 3.00153L19.4857 3.00149L19.4791 2.99872C19.125 2.84823 18.7596 2.92563 18.5214 3.00495C18.2526 3.09443 17.9694 3.24601 17.6851 3.43858C17.1129 3.82625 16.4519 4.43786 15.7753 5.27381L15.1883 5.99915L16.0229 6.41647L17.0379 6.92397C17.0787 6.94436 17.0958 6.9945 17.075 7.03607L17.7456 7.37139L17.0754 7.03531C17.0608 7.06445 17.0322 7.08231 16.9991 7.08231C16.9887 7.08231 16.9759 7.08023 16.9602 7.07263C16.9598 7.07247 16.9595 7.0723 16.9591 7.07213L15.7146 6.44982ZM7.91665 13.6665V17.8331C7.91665 17.8798 7.87994 17.9165 7.83332 17.9165C7.7867 17.9165 7.74998 17.8798 7.74998 17.8331V13.6665C7.74998 13.6199 7.7867 13.5831 7.83332 13.5831C7.87994 13.5831 7.91665 13.6199 7.91665 13.6665ZM12.0833 13.6665V17.8331C12.0833 17.8798 12.0466 17.9165 12 17.9165C11.9534 17.9165 11.9166 17.8798 11.9166 17.8331V13.6665C11.9166 13.6199 11.9534 13.5831 12 13.5831C12.0466 13.5831 12.0833 13.6199 12.0833 13.6665ZM16.25 13.6665V17.8331C16.25 17.8798 16.2133 17.9165 16.1666 17.9165C16.12 17.9165 16.0833 17.8798 16.0833 17.8331V13.6665C16.0833 13.6199 16.12 13.5831 16.1666 13.5831C16.2133 13.5831 16.25 13.6199 16.25 13.6665Z" stroke="#767676" stroke-width="1.5"/>
</svg>
