<svg width="160" height="125" viewBox="0 0 160 125" fill="none" xmlns="http://www.w3.org/2000/svg">
<path d="M74.7995 22.7279C74.8713 22.7607 74.9431 22.7933 75.015 22.8258C75.1717 22.8968 75.328 22.9685 75.4842 23.0406C75.7541 23.1647 76.0258 23.2843 76.2979 23.4033C76.3698 23.4347 76.3698 23.4347 76.443 23.4668C76.6399 23.5529 76.8367 23.6388 77.0337 23.7245C77.5402 23.9452 78.0451 24.1675 78.5436 24.4056C79.3694 24.7967 80.1172 25.0797 81.0477 25.0717C81.2035 25.0705 81.3584 25.0718 81.5141 25.0751C82.601 25.0928 83.6825 25.0116 84.7663 24.9396C85.1758 24.9125 85.5854 24.8859 85.995 24.8597C86.136 24.8505 86.277 24.8411 86.4181 24.8316C88.1165 24.7197 88.1165 24.7197 88.6337 25.1046C88.8369 25.2936 88.9723 25.4651 89.0181 25.7453C89.022 26.0672 88.9442 26.2808 88.7367 26.5331C88.628 26.6338 88.5167 26.7236 88.3991 26.8144C88.5182 26.9335 88.6102 26.9797 88.7622 27.0496C88.8139 27.0737 88.8655 27.0977 88.9187 27.1225C88.9747 27.1485 89.0307 27.1745 89.0884 27.2013C90.8359 28.0282 92.4325 29.0605 93.9135 30.3031C93.9557 30.3382 93.9557 30.3382 93.9988 30.3741C94.4904 30.7841 94.955 31.2142 95.406 31.6684C95.5072 31.7702 95.6089 31.8713 95.7107 31.9724C96.0942 32.3554 96.4465 32.7478 96.7833 33.1729C96.8365 33.2355 96.8901 33.2979 96.9444 33.3597C97.3595 33.835 97.7241 34.3384 98.0774 34.8609C98.1036 34.8995 98.1297 34.9381 98.1566 34.9779C98.7596 35.8756 99.3013 36.8146 99.7692 37.7898C99.8234 37.9028 99.8784 38.0154 99.9335 38.1281C101.049 40.4316 101.734 42.9473 101.96 45.4958C101.965 45.5551 101.971 45.6144 101.976 45.6754C102.025 46.2958 102.027 46.9156 102.027 47.5376C102.027 47.7203 102.028 47.903 102.029 48.0857C102.032 49.1703 101.943 50.2341 101.777 51.3056C101.771 51.3447 101.765 51.3838 101.759 51.4241C101.546 52.7953 101.184 54.0932 100.722 55.3992C100.706 55.4464 100.689 55.4935 100.672 55.5421C99.7575 58.1297 98.3303 60.5544 96.5019 62.6017C96.4588 62.6505 96.4156 62.6992 96.3711 62.7494C96.2469 62.8886 96.1213 63.0265 95.9955 63.1644C95.9461 63.2197 95.8967 63.2749 95.8458 63.3319C95.3973 63.8304 94.9172 64.2903 94.4199 64.7399C94.3873 64.7695 94.3547 64.799 94.3211 64.8294C93.0559 65.9642 91.6302 66.9058 90.1435 67.7222C90.0999 67.7466 90.0563 67.7709 90.0113 67.796C88.8561 68.4398 87.6231 68.9266 86.3734 69.354C86.3146 69.3742 86.3146 69.3742 86.2546 69.3948C84.6695 69.9316 83.0267 70.2043 81.3655 70.3669C81.3123 70.3724 81.259 70.3779 81.2042 70.3836C80.5899 70.4398 79.9737 70.4344 79.3573 70.4337C79.2984 70.4336 79.2394 70.4336 79.1786 70.4335C77.7195 70.4307 76.3286 70.3129 74.8945 70.0293C74.8245 70.0156 74.7545 70.0019 74.6824 69.9877C72.7194 69.5957 70.8134 68.938 69.0399 68.0047C68.921 67.9426 68.8012 67.8824 68.6813 67.8222C67.0882 67.0145 65.5959 65.9615 64.2824 64.7509C64.2068 64.6819 64.1306 64.6133 64.0528 64.5466C63.7426 64.2804 63.4508 63.9979 63.1619 63.7089C63.0821 63.6292 63.0018 63.55 62.9215 63.4708C62.6154 63.1653 62.3313 62.8516 62.0624 62.5128C61.9586 62.3841 61.8504 62.2622 61.738 62.141C60.9224 61.2301 60.2549 60.1696 59.6455 59.113C59.6236 59.0754 59.6018 59.0377 59.5792 58.9989C57.5935 55.5647 56.5953 51.6705 56.5929 47.715C56.5929 47.6595 56.5928 47.6041 56.5928 47.547C56.5944 46.0304 56.7563 44.564 57.0571 43.0763C57.0677 43.0227 57.0783 42.9692 57.0891 42.9141C57.7401 39.6637 59.2224 36.5042 61.2773 33.9044C61.3311 33.8355 61.3311 33.8355 61.3859 33.7652C61.6962 33.372 62.02 32.99 62.3464 32.6102C62.3842 32.5659 62.422 32.5217 62.4609 32.4761C62.7572 32.1381 63.0739 31.8207 63.3909 31.5024C63.4362 31.4569 63.4814 31.4114 63.528 31.3645C63.8003 31.0929 64.0794 30.8338 64.3721 30.5845C64.4024 30.5583 64.4328 30.532 64.464 30.505C64.9087 30.1207 65.366 29.7567 65.8351 29.4028C65.7903 29.3731 65.7903 29.3731 65.7446 29.3428C65.4634 29.1463 65.2902 28.9917 65.1599 28.6713C65.1161 28.4104 65.1308 28.2241 65.2478 27.9855C65.8096 27.3374 66.5124 27.2807 67.3218 27.135C67.5378 27.0961 67.7536 27.0561 67.9695 27.0162C68.3222 26.9511 68.675 26.8862 69.0281 26.8224C69.257 26.781 69.4856 26.738 69.7142 26.6948C69.7796 26.6833 69.845 26.6718 69.9124 26.6599C70.3827 26.5696 70.9159 26.4609 71.2259 26.0663C71.3204 25.8891 71.3934 25.7085 71.4621 25.5202C71.4866 25.4552 71.4866 25.4552 71.5116 25.3889C71.6688 24.9717 71.8191 24.552 71.9665 24.1313C72.0231 23.9706 72.0809 23.8103 72.1388 23.6501C72.1554 23.6017 72.172 23.5532 72.1891 23.5032C72.3443 23.0788 72.583 22.7323 72.9848 22.5098C73.62 22.2688 74.2153 22.4495 74.7995 22.7279Z" fill="#9DD1F1"/>
<path d="M71.645 3.83888C71.9899 4.11532 72.2308 4.48857 72.3062 4.92559C72.3563 5.42506 72.2802 5.87616 71.9903 6.29451C71.5144 6.8644 70.9529 6.99637 70.2484 7.12339C69.8795 7.19667 69.5177 7.30208 69.1551 7.40144C69.1181 7.41151 69.0812 7.42159 69.0431 7.43198C66.7784 8.05048 64.5862 8.82281 62.459 9.82102C62.4051 9.84615 62.3511 9.87128 62.2955 9.89718C61.451 10.2916 60.6254 10.7119 59.8144 11.1715C59.734 11.2169 59.734 11.2169 59.6521 11.2633C58.4287 11.9586 57.2383 12.7063 56.1006 13.5348C56.0579 13.5657 56.0151 13.5965 55.9711 13.6283C55.3749 14.0591 54.7947 14.5048 54.2282 14.9739C54.0911 15.0872 53.9528 15.1988 53.8147 15.3108C53.0512 15.9377 52.3105 16.589 51.614 17.2903C51.4855 17.4196 51.3555 17.543 51.2157 17.66C50.8268 17.9962 50.4682 18.3631 50.1343 18.7538C50.0191 18.8854 49.9006 19.0132 49.7813 19.141C49.5003 19.4419 49.2314 19.748 48.9735 20.0693C48.8498 20.2211 48.7231 20.3694 48.5948 20.5173C48.2486 20.9165 47.92 21.3266 47.6039 21.7501C47.5748 21.789 47.5457 21.828 47.5156 21.8681C46.8605 22.7451 46.207 23.6297 45.6345 24.5636C45.6023 24.6151 45.5701 24.6666 45.5369 24.7196C45.4181 24.9107 45.301 25.1027 45.1844 25.2951C45.1468 25.3567 45.1468 25.3567 45.1084 25.4195C43.92 27.3714 42.9233 29.414 42.0895 31.541C42.0688 31.5934 42.0481 31.6458 42.0268 31.6997C41.5775 32.8383 41.1958 33.9939 40.8864 35.1782C40.8397 35.3565 40.791 35.5341 40.7426 35.7119C40.7152 35.8158 40.6879 35.9196 40.6609 36.0235C40.6349 36.1232 40.6086 36.2228 40.5823 36.3225C40.3544 37.1894 40.166 38.0505 40.0306 38.9365C39.9983 39.1393 39.9592 39.3402 39.9197 39.5418C39.3702 42.4465 39.2379 45.5307 39.4449 48.478C39.4497 48.5477 39.4546 48.6174 39.4596 48.6892C39.6465 51.3051 40 53.9808 40.7637 56.4964C40.7949 56.6 40.7949 56.6 40.8268 56.7057C40.8388 56.7452 40.8508 56.7848 40.8632 56.8255C40.8987 56.9441 40.9334 57.0629 40.9677 57.1819C41.1392 57.7757 41.3267 58.3628 41.5269 58.9477C41.5425 58.9934 41.5581 59.0392 41.5743 59.0864C42.3 61.2023 43.2337 63.2171 44.284 65.19C44.3134 65.2454 44.3428 65.3007 44.3731 65.3577C45.3675 67.2062 46.5422 68.9357 47.829 70.5919C47.8858 70.6656 47.9426 70.7393 47.9994 70.813C48.4793 71.4332 48.9905 72.0254 49.5175 72.6059C49.6162 72.7153 49.7129 72.826 49.809 72.9376C50.2983 73.4973 50.8142 74.0324 51.3388 74.5589C51.3803 74.6006 51.4217 74.6423 51.4644 74.6852C51.6916 74.9118 51.9242 75.1283 52.1672 75.3378C52.335 75.4839 52.4958 75.6372 52.6576 75.7898C52.9343 76.0484 53.2159 76.2962 53.5118 76.5329C53.6399 76.6359 53.7665 76.74 53.8925 76.8455C55.0578 77.8198 56.2905 78.7106 57.5636 79.5387C57.6023 79.5639 57.6409 79.5891 57.6807 79.6151C58.984 80.4609 60.34 81.2056 61.7275 81.902C61.8102 81.9438 61.8102 81.9438 61.8946 81.9864C62.8521 82.4669 63.8414 82.8693 64.8349 83.2685C64.9225 83.3038 65.01 83.3392 65.0975 83.3748C66.173 83.8112 67.2752 84.1586 68.3973 84.4532C68.5212 84.4864 68.6443 84.5215 68.7674 84.5579C69.363 84.7333 69.9664 84.8695 70.5724 85.0039C70.6155 85.0135 70.6587 85.023 70.7032 85.0329C71.5642 85.2234 72.4254 85.4005 73.2979 85.5314C73.3379 85.5374 73.3778 85.5434 73.419 85.5496C75.7525 85.8979 78.0879 85.9851 80.4443 85.9551C80.5662 85.9536 80.6882 85.9523 80.8102 85.951C82.6396 85.9278 84.5151 85.7395 86.306 85.3601C86.4508 85.3301 86.5959 85.3016 86.741 85.2731C87.9479 85.0365 89.1518 84.7989 90.3251 84.426C90.4856 84.3765 90.6469 84.3298 90.8083 84.2834C91.3574 84.1247 91.8976 83.9456 92.4365 83.7554C92.5037 83.7318 92.5037 83.7318 92.5722 83.7077C94.8599 82.9001 97.1043 81.8843 99.2029 80.6641C99.2381 80.6436 99.2733 80.6232 99.3096 80.6021C99.5574 80.4572 99.8027 80.3084 100.047 80.1577C100.088 80.1326 100.128 80.1075 100.17 80.0817C101.493 79.263 102.774 78.376 103.986 77.4005C104.022 77.3718 104.057 77.3431 104.094 77.3135C104.775 76.7674 105.444 76.2088 106.089 75.6214C106.186 75.5332 106.283 75.4453 106.381 75.3576C106.821 74.9592 107.243 74.5455 107.662 74.1252C107.774 74.0131 107.886 73.9014 107.998 73.7897C108.342 73.446 108.68 73.1016 108.994 72.7301C109.085 72.6302 109.176 72.5305 109.268 72.4312C109.545 72.1272 109.805 71.8122 110.063 71.4922C110.118 71.4256 110.173 71.3591 110.228 71.2926C111.218 70.0905 112.134 68.826 112.966 67.5091C113.02 67.4241 113.074 67.3392 113.128 67.2545C115.607 63.3739 117.348 59.0371 118.616 53.2047C118.63 53.1332 118.644 53.0616 118.659 52.988C119.362 49.4046 119.467 45.5752 119.066 41.9508C119.061 41.904 119.056 41.8572 119.05 41.809C118.934 40.772 118.806 39.7363 118.589 38.715C118.556 38.5593 118.527 38.4032 118.497 38.2469C117.671 33.918 116.069 29.7112 113.833 25.914C113.788 25.8371 113.788 25.8371 113.742 25.7585C112.666 23.9279 111.419 22.201 110.063 20.5685C110.039 20.5398 110.015 20.5112 109.991 20.4817C109.663 20.0875 109.326 19.7032 108.977 19.3277C108.865 19.2064 108.756 19.0821 108.648 18.9566C108.427 18.7028 108.192 18.464 107.953 18.226C107.908 18.1814 107.864 18.1367 107.818 18.0908C107.724 17.997 107.63 17.9033 107.537 17.8097C107.394 17.6675 107.252 17.5249 107.11 17.3823C107.018 17.2908 106.926 17.1992 106.835 17.1077C106.772 17.0445 106.772 17.0445 106.707 16.9801C106.447 16.7207 106.178 16.4749 105.899 16.2357C105.834 16.1789 105.769 16.1219 105.704 16.0649C104.893 15.3571 104.066 14.6774 103.198 14.0412C103.16 14.0129 103.121 13.9846 103.082 13.9554C98.9809 10.9257 94.3959 8.78209 87.9719 7.07022C87.3515 6.93849 86.9123 6.68637 86.5423 6.16351C86.3138 5.77078 86.2567 5.37443 86.3172 4.92559C86.3721 4.74285 86.4472 4.58412 86.5423 4.41916C86.576 4.35997 86.6096 4.30079 86.6443 4.2398C86.9712 3.81949 87.372 3.57932 87.8928 3.46258C88.3296 3.43072 88.7355 3.53613 89.1588 3.63491C89.1972 3.64369 89.2355 3.65248 89.275 3.66153C89.9565 3.81797 90.6275 4.00256 91.2962 4.20744C91.4199 4.24494 91.5438 4.28095 91.6683 4.31585C92.8726 4.65644 94.0732 5.05293 95.2269 5.53859C95.398 5.60973 95.57 5.67837 95.7421 5.74699C96.8078 6.17501 97.8388 6.66209 98.8653 7.17636C98.9374 7.21236 99.0096 7.24836 99.0817 7.28436C100.847 8.16745 102.544 9.18595 104.155 10.3274C104.215 10.3699 104.215 10.3699 104.276 10.4133C105.654 11.3934 106.985 12.4386 108.235 13.5781C108.352 13.6833 108.47 13.7868 108.589 13.89C109.209 14.4314 109.797 15.0079 110.379 15.5886C110.426 15.635 110.473 15.6813 110.521 15.7291C110.759 15.9684 110.989 16.2118 111.209 16.468C111.355 16.6353 111.507 16.7955 111.66 16.9567C111.921 17.2364 112.17 17.5222 112.41 17.8214C112.529 17.9686 112.652 18.112 112.777 18.255C113.154 18.6884 113.505 19.1386 113.85 19.5981C113.944 19.7229 114.04 19.8466 114.136 19.9702C115.37 21.571 116.455 23.304 117.434 25.07C117.466 25.1276 117.498 25.1852 117.531 25.2446C119.199 28.2585 120.56 31.5269 121.365 34.8813C121.416 35.0924 121.474 35.3006 121.534 35.509C121.716 36.1344 121.839 36.769 121.962 37.4082C121.999 37.5952 122.041 37.7805 122.083 37.9662C122.171 38.3648 122.222 38.7681 122.273 39.1727C122.28 39.2239 122.286 39.2751 122.293 39.3279C122.299 39.3739 122.305 39.4198 122.31 39.4672C122.328 39.5975 122.328 39.5975 122.386 39.7563C122.475 40.291 122.522 40.8307 122.569 41.3703C122.593 41.6471 122.62 41.9227 122.655 42.1983C122.712 42.6523 122.739 43.1046 122.754 43.5617C122.758 43.6643 122.758 43.6643 122.761 43.7689C122.785 44.5007 122.79 45.2322 122.79 45.9643C122.79 46.1879 122.791 46.4115 122.792 46.6351C122.796 48.1469 122.694 49.6404 122.505 51.1403C122.49 51.2635 122.475 51.3866 122.46 51.5098C122.423 51.8006 122.386 52.0913 122.349 52.3819C122.332 52.5102 122.316 52.6385 122.299 52.7669C122.173 53.7369 121.957 54.683 121.731 55.6338C121.672 55.8854 121.616 56.1374 121.563 56.3905C121.038 58.8851 120.105 61.3973 119.039 63.709C118.952 63.898 118.867 64.0875 118.782 64.2772C117.234 67.6992 115.185 70.954 112.736 73.803C112.605 73.9566 112.478 74.1128 112.352 74.2705C112.111 74.5672 111.853 74.8455 111.59 75.1229C111.43 75.2918 111.273 75.4621 111.122 75.6387C110.901 75.8918 110.667 76.1296 110.429 76.3668C110.384 76.4114 110.34 76.456 110.294 76.502C110.2 76.5958 110.106 76.6894 110.012 76.783C109.87 76.9253 109.728 77.0679 109.585 77.2105C109.494 77.302 109.402 77.3936 109.311 77.4851C109.269 77.5272 109.227 77.5693 109.183 77.6127C108.923 77.8721 108.654 78.1174 108.375 78.3571C108.284 78.4389 108.194 78.5209 108.104 78.6032C107.861 78.8224 107.611 79.0304 107.357 79.2361C107.212 79.3547 107.069 79.4753 106.926 79.5972C103.077 82.8893 98.4117 85.4338 93.6322 87.0788C93.5933 87.0922 93.5544 87.1056 93.5143 87.1194C92.1081 87.6021 90.6849 88.0104 89.2432 88.373C89.1724 88.3908 89.1015 88.4087 89.0285 88.427C86.7484 88.9897 84.3279 89.3124 81.9845 89.4421C81.9326 89.4453 81.8807 89.4485 81.8273 89.4517C81.3922 89.4776 80.9572 89.4901 80.5215 89.4984C80.4741 89.4993 80.4267 89.5003 80.3779 89.5012C77.8774 89.5488 75.402 89.3929 72.9251 89.0482C72.861 89.0396 72.7968 89.0309 72.7307 89.0219C71.8493 88.9013 70.9858 88.7285 70.1196 88.5264C69.9571 88.4888 69.7944 88.4526 69.6314 88.4172C68.05 88.0716 66.5179 87.6121 64.9912 87.0788C64.9529 87.0655 64.9146 87.0521 64.8752 87.0384C63.8065 86.6649 62.7608 86.247 61.7275 85.7846C61.6636 85.7561 61.5997 85.7275 61.5338 85.6981C59.9958 85.0068 58.4995 84.2393 57.0572 83.365C57.0048 83.3333 56.9525 83.3016 56.8985 83.269C54.6121 81.8792 52.4247 80.289 50.4462 78.4845C50.3279 78.3778 50.2085 78.2728 50.0884 78.1683C49.4705 77.6285 48.8845 77.0548 48.3038 76.4756C48.2516 76.4236 48.1994 76.3717 48.1456 76.3182C47.8919 76.0639 47.6459 75.8068 47.412 75.5343C47.2675 75.3675 47.1153 75.2082 46.9639 75.0477C46.7022 74.7681 46.4532 74.4824 46.2139 74.1832C46.0932 74.0349 45.9692 73.8905 45.8434 73.7465C45.4777 73.3269 45.1431 72.8893 44.8128 72.4416C44.6977 72.2872 44.5787 72.1361 44.4599 71.9846C43.877 71.2293 43.3406 70.4353 42.821 69.6353C42.7957 69.5963 42.7704 69.5573 42.7443 69.5171C41.9565 68.2985 41.244 67.0375 40.5703 65.7527C40.5435 65.7019 40.5168 65.6511 40.4893 65.5987C39.3317 63.3826 38.4636 61.0392 37.7005 58.6628C37.6703 58.5692 37.6703 58.5692 37.6395 58.4736C37.3561 57.5905 37.1254 56.6957 36.9128 55.7931C36.8907 55.6999 36.8907 55.6999 36.8681 55.6049C36.6094 54.4991 36.4362 53.3835 36.2725 52.2606C36.2445 52.0694 36.2152 51.8784 36.1848 51.6876C36.0905 51.0855 36.0312 50.481 35.9773 49.8742C35.9738 49.8347 35.9702 49.7952 35.9666 49.7544C35.9423 49.4792 35.9202 49.2038 35.8999 48.9282C35.8971 48.89 35.8942 48.8518 35.8913 48.8124C35.834 48.0135 35.8324 47.2144 35.8331 46.4137C35.8331 46.3445 35.8331 46.2754 35.8331 46.2042C35.8344 44.9895 35.8673 43.7812 35.9562 42.5698C35.9589 42.5314 35.9617 42.4931 35.9645 42.4535C36.059 41.1314 36.2493 39.8258 36.4626 38.5184C36.4741 38.4477 36.4855 38.377 36.4973 38.3041C37.4755 33.5385 38.0381 28.3618 45.3853 18.8651C45.4997 18.7267 45.6127 18.5872 45.7259 18.4478C46.1775 17.8974 46.6382 17.3592 47.1228 16.8375C47.2302 16.7202 47.3356 16.6011 47.4414 16.4823C47.6962 16.1991 47.9605 15.9273 48.2302 15.6583C48.2771 15.6113 48.324 15.5643 48.3724 15.5159C48.4707 15.4176 48.5691 15.3193 48.6675 15.221C48.8173 15.0716 48.9667 14.9219 49.1161 14.7722C49.2123 14.676 49.3085 14.5798 49.4048 14.4837C49.4489 14.4395 49.493 14.3953 49.5384 14.3497C49.8037 14.0855 50.0771 13.835 50.3611 13.5911C50.4516 13.5092 50.5419 13.4272 50.6319 13.3449C50.8707 13.1296 51.1156 12.9242 51.3656 12.7222C51.4965 12.6163 51.6261 12.5089 51.7551 12.4008C52.319 11.9297 52.8973 11.4821 53.4889 11.0465C53.6142 10.9541 53.7391 10.8612 53.8639 10.7681C58.0685 7.65829 62.9941 5.29521 68.4485 3.90743C68.6572 3.85429 68.8654 3.79935 69.0735 3.74415C69.2133 3.70771 69.353 3.6713 69.4927 3.63491C69.5888 3.60901 69.5888 3.60901 69.6868 3.58259C70.4221 3.39374 71.0046 3.40263 71.645 3.83888Z" fill="#1C6586"/>
<path d="M91.0437 100.415C96.8372 100.415 102.631 100.415 108.6 100.415C108.6 101.789 108.6 103.163 108.6 104.579C104.403 104.579 100.207 104.579 95.8829 104.579C95.8829 106.268 95.8829 107.958 95.8829 109.699C99.7452 109.699 103.608 109.699 107.587 109.699C107.587 111.092 107.587 112.484 107.587 113.919C103.725 113.919 99.8622 113.919 95.8829 113.919C95.8829 115.962 95.8829 118.004 95.8829 120.109C100.265 120.109 104.647 120.109 109.162 120.109C109.162 121.502 109.162 122.894 109.162 124.329C103.183 124.329 97.2041 124.329 91.0437 124.329C91.0437 116.437 91.0437 108.546 91.0437 100.415Z" fill="black"/>
<path d="M120.304 106.267C120.374 106.278 120.443 106.289 120.515 106.3C122.121 106.588 123.647 107.215 124.627 108.58C125.07 109.224 125.337 109.914 125.526 110.67C125.537 110.713 125.548 110.755 125.559 110.799C125.776 111.739 125.778 112.721 125.775 113.68C125.775 113.798 125.775 113.915 125.775 114.032C125.775 114.346 125.774 114.66 125.773 114.974C125.773 115.303 125.772 115.633 125.772 115.962C125.772 116.585 125.771 117.207 125.77 117.829C125.769 118.539 125.768 119.248 125.767 119.957C125.766 121.414 125.764 122.872 125.762 124.329C124.313 124.329 122.865 124.329 121.373 124.329C121.26 123.953 121.174 123.635 121.137 123.253C121.13 123.188 121.13 123.188 121.123 123.122C121.112 123.018 121.102 122.914 121.091 122.81C121.066 122.833 121.04 122.856 121.013 122.88C120.89 122.989 120.766 123.096 120.641 123.204C120.601 123.24 120.561 123.275 120.52 123.312C118.854 124.735 116.538 124.907 114.446 124.768C113.291 124.656 112.192 124.23 111.301 123.485C111.245 123.444 111.189 123.404 111.132 123.362C110.359 122.703 109.959 121.623 109.848 120.635C109.718 118.99 109.907 117.28 111.002 115.972C112.394 114.483 114.596 114.017 116.541 113.787C116.779 113.758 117.011 113.712 117.245 113.663C117.434 113.627 117.623 113.61 117.814 113.592C119.367 113.43 119.367 113.43 120.641 112.625C120.939 112.227 120.925 111.699 120.884 111.222C120.828 110.853 120.605 110.592 120.328 110.357C119.398 109.732 118.029 109.659 116.95 109.85C116.522 109.955 116.16 110.117 115.802 110.374C115.767 110.396 115.732 110.419 115.696 110.441C115.453 110.615 115.313 110.848 115.169 111.106C115.151 111.138 115.132 111.17 115.113 111.204C114.915 111.582 114.886 111.895 114.789 112.344C113.341 112.344 111.893 112.344 110.4 112.344C110.4 111.836 110.415 111.409 110.516 110.923C110.529 110.862 110.541 110.801 110.554 110.739C110.789 109.665 111.257 108.799 112.032 108.011C112.074 107.968 112.116 107.925 112.16 107.881C114.156 105.971 117.726 105.858 120.304 106.267Z" fill="black"/>
<path d="M72.4151 106.133C72.4832 106.133 72.4832 106.133 72.5526 106.133C73.3316 106.136 74.0788 106.194 74.8382 106.379C74.8879 106.391 74.9377 106.403 74.9889 106.416C76.1804 106.716 77.212 107.27 78.1018 108.124C78.1481 108.166 78.1943 108.209 78.242 108.253C80.0292 109.954 80.5933 112.571 80.8027 114.932C80.8027 115.508 80.8027 116.083 80.8027 116.677C76.7733 116.677 72.7438 116.677 68.5923 116.677C68.914 118.305 68.914 118.305 69.6614 119.715C69.6871 119.753 69.7129 119.791 69.7394 119.83C70.235 120.48 71.1242 120.886 71.9122 121.009C72.1176 121.024 72.3217 121.025 72.5276 121.023C72.5797 121.024 72.6317 121.024 72.6853 121.025C73.5818 121.022 74.4402 120.743 75.109 120.134C75.1496 120.088 75.1902 120.043 75.2321 119.996C75.2692 119.957 75.3063 119.918 75.3446 119.877C75.5111 119.638 75.6179 119.362 75.7385 119.096C77.3354 119.096 78.9323 119.096 80.5776 119.096C80.0339 120.909 78.9492 122.693 77.2578 123.654C76.5668 124.023 75.876 124.345 75.1195 124.554C75.0742 124.567 75.0288 124.58 74.9821 124.593C74.2419 124.786 73.4985 124.801 72.7386 124.8C72.691 124.801 72.6434 124.801 72.5943 124.801C71.0881 124.8 69.6299 124.571 68.2547 123.935C68.2158 123.917 68.1769 123.899 68.1369 123.881C66.4183 123.069 65.2566 121.549 64.6141 119.792C63.703 117.189 63.5795 114.067 64.4846 111.444C64.4978 111.405 64.511 111.367 64.5246 111.327C65.2122 109.381 66.5607 107.849 68.4159 106.947C69.6828 106.353 71.0275 106.13 72.4151 106.133Z" fill="black"/>
<path d="M127.788 101.821C129.31 101.821 130.833 101.821 132.402 101.821C132.402 103.4 132.402 104.978 132.402 106.604C135.633 106.604 138.864 106.604 142.193 106.604C142.193 107.7 142.193 108.795 142.193 109.924C138.962 109.924 135.731 109.924 132.402 109.924C132.408 111.223 132.413 112.522 132.419 113.86C132.421 114.268 132.422 114.676 132.424 115.097C132.426 115.467 132.426 115.467 132.428 115.836C132.429 116 132.43 116.163 132.43 116.326C132.401 118.351 132.401 118.351 133.331 120.089C133.898 120.633 134.648 120.699 135.391 120.687C136.037 120.662 136.618 120.421 137.061 119.943C137.148 119.833 137.224 119.722 137.297 119.603C137.328 119.555 137.328 119.555 137.36 119.506C137.578 119.124 137.65 118.676 137.747 118.252C137.757 118.215 137.768 118.179 137.778 118.141C137.805 118.023 137.811 117.918 137.813 117.797C137.813 117.752 137.814 117.706 137.814 117.66C137.815 117.611 137.815 117.561 137.815 117.511C137.816 117.459 137.816 117.406 137.817 117.353C137.819 117.18 137.82 117.008 137.822 116.836C137.823 116.716 137.824 116.597 137.825 116.477C137.828 116.163 137.831 115.848 137.834 115.534C137.837 115.156 137.841 114.779 137.844 114.401C137.85 113.828 137.855 113.255 137.86 112.681C139.29 112.681 140.72 112.681 142.193 112.681C142.202 114.12 142.202 114.12 142.204 114.741C142.205 115.162 142.207 115.583 142.21 116.004C142.212 116.344 142.213 116.684 142.214 117.024C142.214 117.153 142.215 117.282 142.217 117.41C142.233 119.239 141.868 121.036 140.673 122.472C140.634 122.521 140.594 122.569 140.553 122.619C139.454 123.897 137.83 124.597 136.172 124.779C135.809 124.802 135.445 124.801 135.082 124.8C135.032 124.8 134.982 124.8 134.931 124.8C134.146 124.798 133.39 124.756 132.627 124.554C132.588 124.544 132.548 124.534 132.508 124.523C131.644 124.287 130.835 123.894 130.151 123.316C130.101 123.274 130.052 123.233 130.001 123.189C128.579 121.949 127.914 120.161 127.788 118.308C127.781 118.075 127.78 117.842 127.781 117.608C127.781 117.54 127.781 117.472 127.781 117.402C127.781 117.216 127.781 117.029 127.781 116.843C127.781 116.641 127.781 116.439 127.781 116.237C127.781 115.888 127.781 115.539 127.782 115.19C127.782 114.685 127.782 114.18 127.782 113.675C127.783 112.856 127.783 112.037 127.784 111.218C127.784 110.422 127.784 109.627 127.785 108.831C127.785 108.782 127.785 108.733 127.785 108.683C127.785 108.436 127.785 108.19 127.785 107.944C127.786 105.903 127.787 103.862 127.788 101.821Z" fill="black"/>
<path d="M25.0399 101.821C26.5625 101.821 28.0852 101.821 29.654 101.821C29.654 103.4 29.654 104.978 29.654 106.604C32.885 106.604 36.1159 106.604 39.4448 106.604C39.4448 107.7 39.4448 108.795 39.4448 109.924C36.2139 109.924 32.9829 109.924 29.654 109.924C29.6598 111.223 29.6656 112.522 29.6716 113.86C29.673 114.268 29.6744 114.676 29.6758 115.097C29.6779 115.467 29.6779 115.467 29.6801 115.836C29.6811 116 29.6817 116.163 29.6819 116.326C29.6529 118.351 29.6529 118.351 30.5833 120.089C31.1503 120.633 31.8998 120.699 32.6428 120.687C33.2997 120.662 33.8895 120.409 34.3384 119.926C34.8846 119.235 35.0616 118.352 35.0674 117.492C35.0679 117.439 35.0685 117.387 35.0691 117.333C35.0708 117.162 35.0722 116.991 35.0736 116.819C35.0748 116.7 35.076 116.581 35.0772 116.461C35.0803 116.148 35.0831 115.835 35.0858 115.522C35.0891 115.146 35.0928 114.77 35.0965 114.393C35.102 113.823 35.107 113.252 35.1121 112.681C36.5419 112.681 37.9717 112.681 39.4448 112.681C39.4539 114.102 39.4539 114.102 39.4558 114.716C39.4572 115.132 39.4587 115.548 39.4618 115.964C39.4643 116.3 39.4656 116.636 39.4662 116.972C39.4666 117.099 39.4674 117.226 39.4686 117.353C39.4859 119.214 39.1416 121.01 37.9256 122.472C37.8857 122.521 37.8458 122.569 37.8047 122.619C36.7071 123.895 35.0815 124.6 33.424 124.779C33.1039 124.798 32.7834 124.798 32.4628 124.797C32.3174 124.797 32.172 124.798 32.0266 124.8C30.0661 124.807 28.2754 124.179 26.837 122.827C25.5471 121.487 25.0284 119.547 25.0331 117.73C25.0331 117.662 25.033 117.593 25.033 117.523C25.0329 117.335 25.0331 117.147 25.0334 116.959C25.0336 116.755 25.0335 116.552 25.0335 116.349C25.0334 115.997 25.0336 115.645 25.0339 115.293C25.0344 114.784 25.0345 114.276 25.0346 113.767C25.0347 112.942 25.0351 112.116 25.0356 111.291C25.0362 110.489 25.0366 109.687 25.0368 108.886C25.0368 108.836 25.0368 108.787 25.0368 108.736C25.0369 108.488 25.037 108.24 25.0371 107.992C25.0376 105.935 25.0387 103.878 25.0399 101.821Z" fill="black"/>
<path d="M41.3578 101.821C42.8805 101.821 44.4031 101.821 45.9719 101.821C45.9719 103.4 45.9719 104.978 45.9719 106.604C49.2029 106.604 52.4339 106.604 55.7628 106.604C55.7628 107.7 55.7628 108.795 55.7628 109.924C52.5318 109.924 49.3008 109.924 45.9719 109.924C45.9777 111.233 45.9835 112.542 45.9895 113.891C45.9909 114.303 45.9923 114.715 45.9937 115.139C45.9958 115.512 45.9958 115.512 45.9981 115.884C45.9991 116.049 45.9996 116.213 45.9999 116.378C46.0002 116.589 46.0014 116.8 46.0031 117.011C46.0038 117.123 46.0037 117.236 46.0036 117.348C46.0139 118.354 46.2022 119.33 46.9012 120.089C47.4683 120.633 48.2179 120.699 48.961 120.687C49.6072 120.662 50.1884 120.421 50.6315 119.943C50.7181 119.833 50.794 119.722 50.8673 119.603C50.8982 119.555 50.8982 119.555 50.9298 119.506C51.2796 118.893 51.3806 118.087 51.3853 117.396C51.3859 117.345 51.3864 117.294 51.387 117.241C51.3888 117.073 51.3902 116.905 51.3916 116.737C51.3927 116.62 51.3939 116.503 51.3951 116.386C51.3982 116.079 51.401 115.772 51.4037 115.465C51.407 115.097 51.4108 114.728 51.4144 114.36C51.4199 113.8 51.4249 113.241 51.43 112.681C52.8598 112.681 54.2896 112.681 55.7628 112.681C55.7673 114.124 55.7673 114.124 55.7683 114.743C55.7689 115.164 55.7697 115.585 55.7713 116.006C55.7725 116.346 55.7732 116.685 55.7735 117.025C55.7737 117.154 55.7741 117.283 55.7747 117.412C55.7845 119.58 55.2435 121.469 53.7166 123.061C53.0637 123.685 52.2702 124.078 51.43 124.385C51.3783 124.404 51.3265 124.423 51.2731 124.443C50.4138 124.741 49.5537 124.802 48.6517 124.8C48.6021 124.8 48.5524 124.8 48.5013 124.8C47.7156 124.798 46.9603 124.756 46.197 124.554C46.1575 124.544 46.118 124.534 46.0773 124.523C44.5504 124.11 43.157 123.126 42.3601 121.751C41.4686 120.152 41.3298 118.508 41.3382 116.706C41.339 116.506 41.3387 116.305 41.3386 116.104C41.3385 115.758 41.339 115.412 41.34 115.066C41.3414 114.566 41.3418 114.066 41.342 113.566C41.3424 112.754 41.3435 111.942 41.3451 111.13C41.3467 110.343 41.3478 109.555 41.3486 108.767C41.3486 108.718 41.3486 108.67 41.3487 108.62C41.3489 108.375 41.3491 108.131 41.3493 107.886C41.3511 105.865 41.3542 103.843 41.3578 101.821Z" fill="black"/>
<path d="M155.078 106.548C155.148 106.568 155.217 106.588 155.289 106.609C156.636 107.027 157.831 107.801 158.515 109.067C158.746 109.509 158.937 109.95 159.073 110.431C159.091 110.491 159.091 110.491 159.11 110.552C159.238 111.017 159.242 111.47 159.242 111.95C157.757 111.95 156.271 111.95 154.741 111.95C154.703 111.764 154.666 111.579 154.628 111.387C154.475 110.858 154.203 110.423 153.731 110.128C153.006 109.734 152.277 109.68 151.459 109.682C151.386 109.681 151.313 109.68 151.238 109.679C150.524 109.678 149.632 109.724 149.077 110.235C148.774 110.582 148.737 110.893 148.752 111.344C148.794 111.711 148.947 111.92 149.223 112.156C149.794 112.567 150.477 112.794 151.146 112.987C151.22 113.009 151.294 113.031 151.368 113.053C152.16 113.284 152.96 113.486 153.759 113.689C154.55 113.89 155.333 114.105 156.108 114.358C156.186 114.384 156.265 114.409 156.343 114.434C157.144 114.691 157.88 115.04 158.511 115.607C158.55 115.641 158.589 115.675 158.629 115.71C159.435 116.454 159.757 117.516 159.817 118.583C159.862 120.021 159.503 121.412 158.567 122.529C158.525 122.584 158.483 122.64 158.44 122.697C157.774 123.481 156.804 123.913 155.866 124.273C155.806 124.296 155.746 124.319 155.684 124.343C155.105 124.543 154.488 124.611 153.884 124.7C153.78 124.715 153.677 124.733 153.575 124.753C153.323 124.789 153.075 124.791 152.822 124.793C152.766 124.793 152.711 124.794 152.654 124.794C151.458 124.804 150.288 124.811 149.114 124.554C149.058 124.542 149.003 124.53 148.946 124.518C148.213 124.351 147.535 124.101 146.863 123.766C146.804 123.737 146.745 123.708 146.684 123.679C145.296 122.957 144.218 121.771 143.745 120.277C143.581 119.721 143.543 119.234 143.543 118.646C145.121 118.646 146.7 118.646 148.326 118.646C148.363 118.869 148.4 119.092 148.438 119.321C148.687 119.991 149.016 120.408 149.645 120.738C149.695 120.766 149.695 120.766 149.747 120.793C150.433 121.13 151.16 121.216 151.914 121.207C152.043 121.206 152.173 121.207 152.302 121.209C153.149 121.21 154.111 121.063 154.745 120.445C155.082 120.02 155.128 119.57 155.078 119.04C154.978 118.638 154.673 118.373 154.347 118.14C154.147 118.025 153.943 117.939 153.728 117.858C153.669 117.836 153.611 117.814 153.55 117.79C152.933 117.571 152.296 117.431 151.659 117.282C146.146 115.987 146.146 115.987 144.779 113.888C144.128 112.751 143.948 111.301 144.278 110.033C144.469 109.367 144.764 108.754 145.231 108.236C145.276 108.186 145.32 108.137 145.366 108.086C146.098 107.31 147.027 106.849 148.045 106.548C148.104 106.529 148.164 106.51 148.226 106.49C150.317 105.888 152.999 105.936 155.078 106.548Z" fill="black"/>
<path d="M0 100.415C1.65263 100.415 3.30526 100.415 5.00797 100.415C5.00797 106.858 5.00797 113.301 5.00797 119.94C8.90744 119.94 12.8069 119.94 16.8245 119.94C16.8245 121.389 16.8245 122.837 16.8245 124.329C11.2724 124.329 5.72034 124.329 0 124.329C0 116.437 0 108.546 0 100.415Z" fill="#010101"/>
<path d="M74.7995 22.7279C74.8713 22.7607 74.9431 22.7933 75.015 22.8258C75.1717 22.8968 75.328 22.9685 75.4842 23.0406C75.7541 23.1647 76.0258 23.2843 76.2979 23.4033C76.3458 23.4243 76.3937 23.4452 76.443 23.4668C76.6399 23.5529 76.8367 23.6388 77.0337 23.7245C77.5402 23.9452 78.0451 24.1675 78.5436 24.4056C79.3694 24.7967 80.1172 25.0797 81.0477 25.0717C81.2035 25.0705 81.3584 25.0718 81.5141 25.0751C82.601 25.0928 83.6825 25.0116 84.7663 24.9396C85.1758 24.9125 85.5854 24.8859 85.995 24.8597C86.136 24.8505 86.277 24.8411 86.418 24.8316C88.1165 24.7197 88.1165 24.7197 88.6337 25.1046C88.8369 25.2936 88.9723 25.4651 89.0181 25.7453C89.0221 26.0751 88.9374 26.2664 88.7367 26.5331C88.6271 26.6374 88.5196 26.7335 88.4026 26.8285C88.3708 26.8549 88.339 26.8813 88.3062 26.9084C87.9195 27.2267 87.5213 27.5309 87.1192 27.8295C87.0739 27.8636 87.0285 27.8976 86.9818 27.9328C86.9427 27.9616 86.9036 27.9905 86.8634 28.0203C86.7131 28.1585 86.6624 28.2756 86.6359 28.4772C86.6348 28.5541 86.6348 28.5541 86.6337 28.6326C86.6321 28.6835 86.6305 28.7343 86.6288 28.7867C86.683 29.1333 86.86 29.3563 87.1341 29.5641C87.1662 29.5875 87.1984 29.6108 87.2315 29.6349C87.3016 29.688 87.3717 29.7412 87.4417 29.7945C87.4783 29.8221 87.515 29.8497 87.5528 29.8782C87.7532 30.0305 87.9497 30.1876 88.1459 30.3453C88.1829 30.3745 88.2199 30.4037 88.2581 30.4337C88.857 30.9154 88.857 30.9154 88.9464 31.2386C88.9328 31.5562 88.894 31.8027 88.6805 32.0475C88.2468 32.4339 87.8367 32.4704 87.2737 32.4414C86.8832 32.4161 86.4934 32.3819 86.1036 32.3476C85.9066 32.3302 85.7096 32.3133 85.5126 32.2965C84.9529 32.2487 84.3932 32.2001 83.8335 32.1513C83.4898 32.1214 83.146 32.0919 82.8021 32.0626C82.6723 32.0515 82.5425 32.0402 82.4128 32.0287C81.8063 31.975 81.2021 31.9254 80.5929 31.9234C80.5498 31.9232 80.5067 31.9229 80.4623 31.9227C80.1449 31.9255 79.8851 31.9743 79.6 32.1108C79.5585 32.1286 79.5171 32.1465 79.4743 32.1649C79.3534 32.2176 79.234 32.2727 79.1147 32.3288C79.0499 32.3583 78.9851 32.3879 78.9184 32.4183C78.7991 32.4732 78.68 32.5287 78.5612 32.5849C78.3423 32.6852 78.1198 32.774 77.8957 32.8621C77.5615 32.9939 77.2303 33.1324 76.8991 33.2713C76.3591 33.4974 75.817 33.7173 75.2729 33.9332C74.9334 34.068 74.5955 34.2062 74.2587 34.3475C74.1834 34.3788 74.1834 34.3788 74.1067 34.4108C74.0568 34.4317 74.0068 34.4526 73.9554 34.4742C73.5425 34.6302 73.0355 34.531 72.6437 34.3545C72.1335 34.0495 72.0056 33.4796 71.8384 32.9436C71.8042 32.8365 71.7701 32.7294 71.7359 32.6224C71.6831 32.4557 71.6305 32.2891 71.5782 32.1223C71.527 31.9598 71.4752 31.7976 71.4234 31.6353C71.408 31.5857 71.3926 31.5361 71.3768 31.4851C71.2467 31.0799 71.0943 30.7735 70.7306 30.5282C70.432 30.3849 70.1443 30.308 69.8204 30.244C69.7711 30.2339 69.7219 30.2238 69.6712 30.2134C69.5663 30.1919 69.4613 30.1706 69.3563 30.1495C69.0828 30.0944 68.8097 30.0379 68.5365 29.9815C68.4827 29.9705 68.429 29.9594 68.3736 29.948C67.9399 29.8585 67.5078 29.7635 67.0766 29.6631C66.9945 29.644 66.9945 29.644 66.9109 29.6245C66.7585 29.5887 66.6063 29.5521 66.4541 29.5153C66.3647 29.4945 66.3647 29.4945 66.2736 29.4731C66.1835 29.4516 66.1835 29.4516 66.0916 29.4296C66.0372 29.4168 65.9827 29.4039 65.9267 29.3906C65.6277 29.3014 65.4205 29.1404 65.2478 28.8823C65.1299 28.6481 65.1143 28.4214 65.1599 28.1649C65.3097 27.8592 65.5653 27.5814 65.8832 27.4448C66.3543 27.3026 66.8382 27.2221 67.3218 27.135C67.5378 27.0961 67.7536 27.0561 67.9695 27.0162C68.3222 26.9511 68.675 26.8862 69.028 26.8224C69.257 26.781 69.4856 26.738 69.7142 26.6948C69.7796 26.6833 69.845 26.6718 69.9124 26.6599C70.3827 26.5696 70.9159 26.4609 71.2259 26.0663C71.3204 25.8891 71.3934 25.7085 71.4621 25.5202C71.4784 25.4769 71.4948 25.4335 71.5116 25.3889C71.6688 24.9717 71.8191 24.552 71.9665 24.1313C72.0231 23.9706 72.0809 23.8103 72.1388 23.6501C72.1554 23.6017 72.172 23.5532 72.1891 23.5032C72.3443 23.0788 72.583 22.7323 72.9848 22.5098C73.62 22.2688 74.2153 22.4495 74.7995 22.7279Z" fill="#82BCE4"/>
<path d="M57.676 100.133C59.2172 100.133 60.7585 100.133 62.3464 100.133C62.3464 108.118 62.3464 116.103 62.3464 124.329C60.8052 124.329 59.2639 124.329 57.676 124.329C57.676 116.344 57.676 108.36 57.676 100.133Z" fill="black"/>
<path d="M18.2312 106.604C19.7724 106.604 21.3136 106.604 22.9016 106.604C22.9016 112.454 22.9016 118.303 22.9016 124.329C21.3603 124.329 19.8191 124.329 18.2312 124.329C18.2312 118.48 18.2312 112.631 18.2312 106.604Z" fill="black"/>
<path d="M69.3237 33.7919C70.3057 34.5657 70.9566 35.639 71.1244 36.8867C71.244 38.1682 70.9041 39.3258 70.1183 40.3459C69.3714 41.2345 68.3482 41.8504 67.1855 42.0072C66.6061 42.0527 66.0043 42.0487 65.4412 41.8947C65.3892 41.8809 65.3373 41.8671 65.2838 41.8529C64.4741 41.6108 63.8317 41.2024 63.2467 40.6005C63.2086 40.5616 63.1705 40.5227 63.1313 40.4827C62.6131 39.922 62.3402 39.2946 62.1213 38.5748C62.1061 38.5263 62.0909 38.4779 62.0753 38.4279C61.7918 37.3099 62.0661 36.0781 62.63 35.0967C63.2827 34.0303 64.2876 33.2964 65.4974 32.9865C66.8399 32.6742 68.2078 32.9952 69.3237 33.7919Z" fill="#B1DAF4"/>
<path d="M74.1629 24.6199C74.46 24.7117 74.7395 24.8332 75.0232 24.9595C75.0737 24.9818 75.1243 25.0042 75.1764 25.0273C75.338 25.0988 75.4995 25.1706 75.661 25.2424C75.7665 25.2891 75.872 25.3358 75.9776 25.3825C76.4934 25.611 77.0086 25.8409 77.523 26.0725C77.5932 26.1042 77.5932 26.1042 77.6649 26.1364C77.8541 26.2217 78.0432 26.307 78.2324 26.3923C78.3749 26.4563 78.5178 26.5195 78.6609 26.5823C78.706 26.6027 78.7512 26.6232 78.7977 26.6443C79.4271 26.9189 80.0384 27.0109 80.7218 27.0008C80.7929 27.0003 80.864 26.9997 80.9373 26.9992C81.9782 26.9882 83.035 26.9509 84.0687 26.8251C84.2659 26.8059 84.4627 26.8084 84.6606 26.8109C84.7013 26.8111 84.7419 26.8114 84.7838 26.8116C84.8822 26.8123 84.9807 26.8133 85.0791 26.8144C85.042 26.8329 85.0048 26.8515 84.9666 26.8706C84.9277 26.945 84.8904 27.0201 84.854 27.0957C84.8009 27.1724 84.7469 27.2486 84.6923 27.3243C84.3089 27.9041 84.1997 28.493 84.2913 29.1777C84.4004 29.6028 84.609 29.9339 84.8903 30.2668C84.9666 30.3593 84.9666 30.3593 84.9666 30.4156C84.3061 30.4014 83.6495 30.3649 82.9917 30.3055C82.9361 30.3005 82.8806 30.2955 82.8234 30.2903C82.5434 30.2649 82.2635 30.2387 81.9837 30.2115C80.3349 30.055 79.1855 30.2332 77.6656 30.8834C77.5468 30.9336 77.4279 30.9838 77.309 31.0339C77.0694 31.1349 76.8299 31.2363 76.5906 31.3379C76.1294 31.5338 75.6677 31.7284 75.2055 31.9218C75.0759 31.9762 74.9465 32.0309 74.8172 32.0857C74.7394 32.1184 74.6616 32.1511 74.5838 32.1837C74.4836 32.226 74.4836 32.226 74.3814 32.2691C74.2191 32.3288 74.2191 32.3288 74.0503 32.3288C73.9017 31.9909 73.7884 31.6493 73.6881 31.2948C73.5086 30.6709 73.3152 30.1139 72.8687 29.6278C72.8378 29.5939 72.8069 29.56 72.775 29.525C72.1574 28.9209 71.2249 28.6311 70.3928 28.5025C70.3928 28.4653 70.3928 28.4282 70.3928 28.3899C70.4433 28.3816 70.4938 28.3734 70.5458 28.3649C71.5362 28.1868 72.5318 27.8624 73.1832 27.043C73.4983 26.5821 73.6611 26.0537 73.8396 25.5298C73.9057 25.3372 73.9745 25.1456 74.0433 24.954C74.0664 24.8895 74.0894 24.825 74.1132 24.7586C74.1296 24.7128 74.146 24.667 74.1629 24.6199Z" fill="#5E88A5"/>
<path d="M82.0407 1.66202C82.863 2.37186 83.4676 3.27439 83.5724 4.3818C83.6305 5.57194 83.3632 6.62721 82.5641 7.54459C81.8541 8.30275 80.9492 8.81033 79.894 8.87152C78.755 8.9089 77.7584 8.67592 76.8769 7.91407C76.0447 7.12703 75.5209 6.18265 75.4803 5.02542C75.4671 3.80899 75.8423 2.82013 76.6982 1.93656C78.1765 0.547623 80.4272 0.42051 82.0407 1.66202Z" fill="#60BA84"/>
<path d="M121.035 115.72C121.041 116.015 121.045 116.31 121.048 116.605C121.049 116.705 121.05 116.805 121.052 116.905C121.076 118.132 120.857 119.239 119.99 120.157C119.532 120.614 118.99 120.938 118.391 121.178C118.335 121.203 118.335 121.203 118.278 121.228C117.486 121.564 116.419 121.587 115.613 121.298C115.094 121.075 114.771 120.702 114.559 120.183C114.408 119.631 114.438 118.885 114.677 118.365C115.174 117.531 116.08 117.135 116.984 116.902C117.511 116.772 118.042 116.655 118.574 116.55C119.394 116.387 120.135 116.208 120.866 115.784C120.979 115.72 120.979 115.72 121.035 115.72Z" fill="#FDFDFD"/>
<path d="M74.3337 110.376C75.2071 110.957 75.734 111.835 75.9426 112.853C75.9982 113.163 76.02 113.431 76.02 113.751C73.6246 113.751 71.2292 113.751 68.7612 113.751C68.8268 112.899 68.9826 112.219 69.4365 111.5C69.4666 111.451 69.4967 111.403 69.5277 111.353C70.5881 109.739 72.719 109.436 74.3337 110.376Z" fill="#FDFDFD"/>
<path d="M63.4674 44.0135C64.0816 44.4139 64.4502 44.9898 64.6203 45.6981C64.7474 46.4322 64.5909 47.1043 64.1862 47.7308C63.7398 48.3314 63.1907 48.6657 62.4589 48.8158C61.6317 48.9011 60.913 48.6868 60.2664 48.1636C59.8047 47.7342 59.4878 47.1388 59.4503 46.5059C59.4484 46.4072 59.4478 46.3085 59.4485 46.2098C59.4488 46.158 59.4491 46.1062 59.4494 46.0528C59.4601 45.6328 59.538 45.2961 59.758 44.9332C59.7825 44.8927 59.8069 44.8522 59.8321 44.8105C60.6832 43.5642 62.1851 43.2867 63.4674 44.0135Z" fill="#B1DAF4"/>
<path d="M18.2312 100.133C19.7724 100.133 21.3136 100.133 22.9016 100.133C22.9016 101.563 22.9016 102.993 22.9016 104.466C21.3603 104.466 19.8191 104.466 18.2312 104.466C18.2312 103.036 18.2312 101.606 18.2312 100.133Z" fill="black"/>
<path d="M91.3813 51.2916C91.9605 51.734 92.2847 52.2117 92.4505 52.9234C92.5334 53.5624 92.3639 54.2014 91.9827 54.7207C91.5717 55.2221 91.0897 55.5997 90.4248 55.6806C89.7072 55.7421 89.1303 55.6256 88.5468 55.1918C88.0495 54.7607 87.6995 54.2032 87.6443 53.5393C87.6114 52.8743 87.7609 52.3149 88.1902 51.7908C89.0495 50.8511 90.2795 50.5974 91.3813 51.2916Z" fill="#508AA8"/>
<path d="M68.0827 51.3658C68.5424 51.7416 68.9389 52.2034 69.0424 52.8108C69.0991 53.6363 68.9716 54.2982 68.4234 54.949C68.0558 55.3529 67.4891 55.6585 66.9424 55.692C66.1374 55.7019 65.5192 55.5222 64.9171 54.9631C64.6911 54.7252 64.5548 54.4618 64.4283 54.1613C64.3973 54.0994 64.3973 54.0994 64.3656 54.0362C64.2935 53.8102 64.2972 53.5953 64.2982 53.3594C64.2973 53.314 64.2963 53.2685 64.2954 53.2216C64.2949 52.615 64.5277 52.0644 64.9369 51.616C65.8221 50.784 67.0755 50.6243 68.0827 51.3658Z" fill="#508AA8"/>
<path d="M75.6259 54.1612C75.8179 54.366 75.91 54.5676 76.0058 54.8294C76.4741 56.0526 77.2 57.1948 78.4289 57.7519C79.0112 57.9689 79.6616 57.9269 80.2328 57.6976C80.6581 57.5021 80.9819 57.2509 81.3091 56.9184C81.3619 56.8656 81.3619 56.8656 81.4157 56.8116C82.0294 56.155 82.384 55.2936 82.7335 54.4778C82.8144 54.304 82.8553 54.2218 82.9972 54.105C83.1344 54.105 83.1344 54.105 83.2786 54.1612C83.5054 54.3943 83.5475 54.5514 83.581 54.8646C83.5607 55.8662 82.583 56.9645 81.9152 57.6311C81.0688 58.441 80.0564 58.6939 78.9197 58.6782C78.5427 58.6654 78.2214 58.5919 77.8767 58.4377C77.817 58.411 77.7573 58.3843 77.6958 58.3568C76.6292 57.8293 75.9051 56.934 75.3446 55.9056C75.3094 55.8414 75.2742 55.7772 75.238 55.7111C75.0427 55.3256 74.9241 54.9887 75.007 54.5551C75.1325 54.2275 75.2643 54.0407 75.6259 54.1612Z" fill="#020303"/>
<path d="M78.9459 2.78739C79.2765 3.03029 79.5455 3.29183 79.6774 3.6877C79.72 4.22307 79.7357 4.7039 79.3961 5.1507C79.0771 5.51545 78.7419 5.67958 78.2646 5.73295C77.7694 5.75562 77.4032 5.66071 77.0291 5.32896C76.6134 4.88899 76.549 4.4864 76.5633 3.88816C76.6078 3.42664 76.8507 3.13288 77.2016 2.84366C77.7409 2.47136 78.3849 2.43701 78.9459 2.78739Z" fill="#AFDCC1"/>
<path d="M85.6718 44.172C86.319 44.5945 86.9672 45.2515 87.2174 46.0023C87.2403 46.2414 87.2564 46.4422 87.133 46.6529C87.1052 46.6796 87.0773 46.7063 87.0486 46.7338C86.9172 46.7226 86.9172 46.7226 86.7673 46.6775C86.6877 46.5604 86.6877 46.5604 86.6196 46.4067C86.2916 45.7591 85.7448 45.2108 85.0651 44.9402C84.5159 44.7804 83.9515 44.8372 83.4474 45.102C82.7443 45.5466 82.3821 46.2279 82.0407 46.9589C81.9478 46.9589 81.855 46.9589 81.7593 46.9589C81.6121 46.7292 81.5577 46.5459 81.6002 46.2733C81.8748 45.3393 82.4948 44.5605 83.3181 44.0513C84.0529 43.686 84.9757 43.767 85.6718 44.172Z" fill="#020304"/>
<path d="M75.1493 44.1157C75.7965 44.5382 76.4447 45.1952 76.695 45.946C76.7179 46.1851 76.7339 46.3859 76.6106 46.5966C76.5827 46.6233 76.5549 46.65 76.5262 46.6775C76.3947 46.6663 76.3947 46.6663 76.2448 46.6212C76.1653 46.5041 76.1653 46.5041 76.0971 46.3504C75.7691 45.7029 75.2224 45.1546 74.5427 44.8839C73.9934 44.7241 73.4291 44.7809 72.9249 45.0457C72.2218 45.4904 71.8597 46.1716 71.5182 46.9026C71.4254 46.9026 71.3325 46.9026 71.2369 46.9026C71.0896 46.6729 71.0353 46.4896 71.0777 46.217C71.3524 45.283 71.9724 44.5043 72.7957 43.9951C73.5305 43.6297 74.4532 43.7107 75.1493 44.1157Z" fill="#020304"/>
<path d="M79.9587 25.0138C80.7281 25.0458 81.4971 25.0812 82.2658 25.1263C82.2658 25.1449 82.2658 25.1635 82.2658 25.1826C81.9824 25.1854 81.6991 25.1874 81.4158 25.1888C81.3194 25.1893 81.2231 25.1901 81.1268 25.1911C80.9881 25.1925 80.8494 25.1931 80.7107 25.1936C80.6464 25.1945 80.6464 25.1945 80.5808 25.1954C80.3481 25.1954 80.168 25.1746 79.9587 25.0701C79.9587 25.0515 79.9587 25.0329 79.9587 25.0138Z" fill="#A0D1F0"/>
</svg>
