<svg width="18" height="18" viewBox="0 0 18 18" fill="none" xmlns="http://www.w3.org/2000/svg">
<g clip-path="url(#clip0_1435_432)">
<path d="M17.0798 5.79079C16.7281 5.38549 16.2934 5.0605 15.8052 4.83781C15.317 4.61511 14.7866 4.49992 14.25 4.50004H11.2582L11.5103 2.96929C11.5994 2.43024 11.4918 1.87709 11.2071 1.41074C10.9225 0.944397 10.4796 0.595924 9.9594 0.428883C9.43918 0.261842 8.87625 0.287365 8.37328 0.500795C7.87031 0.714226 7.46082 1.10134 7.2195 1.59154L6 4.06279V15.75H13.725C14.6276 15.7463 15.4989 15.4188 16.1803 14.8269C16.8618 14.235 17.3082 13.4182 17.4382 12.525L17.967 8.77504C18.0418 8.24308 18.0012 7.70127 17.8481 7.18636C17.695 6.67145 17.433 6.1955 17.0798 5.79079Z" fill="#767676"/>
<path d="M0 8.25V12C0.00119089 12.9942 0.396661 13.9473 1.09966 14.6503C1.80267 15.3533 2.7558 15.7488 3.75 15.75H4.5V4.5H3.75C2.7558 4.50119 1.80267 4.89666 1.09966 5.59966C0.396661 6.30267 0.00119089 7.2558 0 8.25Z" fill="#767676"/>
</g>
<defs>
<clipPath id="clip0_1435_432">
<rect width="18" height="18" fill="white"/>
</clipPath>
</defs>
</svg>
