<svg width="20" height="20" viewBox="0 0 20 20" fill="none" xmlns="http://www.w3.org/2000/svg">
    <path
        d="M14.25 1.66667V2.41667H15H15.8328C16.7387 2.41785 17.6072 2.77825 18.2478 3.41885C18.8885 4.05953 19.2489 4.92817 19.25 5.83423V15.8324C19.2489 16.7385 18.8885 17.6071 18.2478 18.2478C17.6071 18.8885 16.7385 19.2489 15.8324 19.25H4.16757C3.2615 19.2489 2.39286 18.8885 1.75218 18.2478C1.1116 17.6072 0.751198 16.7388 0.75 15.8329V5.83381C0.751198 4.9279 1.1116 4.05943 1.75218 3.41885C2.39277 2.77825 3.26126 2.41785 4.16718 2.41667H5H5.75V1.66667V0.833333C5.75 0.811232 5.75878 0.790036 5.77441 0.774408C5.79004 0.758779 5.81123 0.75 5.83333 0.75C5.85543 0.75 5.87663 0.75878 5.89226 0.774408C5.90789 0.790036 5.91667 0.811232 5.91667 0.833333V1.66667V2.41667H6.66667H13.3333H14.0833V1.66667V0.833333C14.0833 0.811229 14.0921 0.790034 14.1077 0.774408C14.1234 0.75878 14.1446 0.75 14.1667 0.75C14.1888 0.75 14.21 0.75878 14.2256 0.774408C14.2412 0.790036 14.25 0.811232 14.25 0.833333V1.66667ZM18.3333 7.41667H19.0833V6.66667V5.83333C19.0833 4.97138 18.7409 4.14473 18.1314 3.53524C17.5219 2.92574 16.6953 2.58333 15.8333 2.58333H4.16667C3.30471 2.58333 2.47806 2.92574 1.86857 3.53524C1.25908 4.14473 0.916667 4.97138 0.916667 5.83333V6.66667V7.41667H1.66667H18.3333ZM1.66667 7.58333H0.916667V8.33333V15.8333C0.916667 16.6953 1.25908 17.5219 1.86857 18.1314C2.47806 18.7409 3.30471 19.0833 4.16667 19.0833H15.8333C16.6953 19.0833 17.5219 18.7409 18.1314 18.1314C18.7409 17.5219 19.0833 16.6953 19.0833 15.8333V8.33333V7.58333H18.3333H1.66667Z"
        stroke="#767676" stroke-width="1.5" />
    <path
        d="M10 14.5C10.8284 14.5 11.5 13.8284 11.5 13C11.5 12.1716 10.8284 11.5 10 11.5C9.17157 11.5 8.5 12.1716 8.5 13C8.5 13.8284 9.17157 14.5 10 14.5Z"
        fill="#767676" />
    <path
        d="M5 14.5C5.82843 14.5 6.5 13.8284 6.5 13C6.5 12.1716 5.82843 11.5 5 11.5C4.17157 11.5 3.5 12.1716 3.5 13C3.5 13.8284 4.17157 14.5 5 14.5Z"
        fill="#767676" />
    <path
        d="M15 14.5C15.8284 14.5 16.5 13.8284 16.5 13C16.5 12.1716 15.8284 11.5 15 11.5C14.1716 11.5 13.5 12.1716 13.5 13C13.5 13.8284 14.1716 14.5 15 14.5Z"
        fill="#767676" />
</svg>
