<svg width="20" height="20" viewBox="0 0 20 20" fill="none" xmlns="http://www.w3.org/2000/svg">
    <path
        d="M10.2001 11.154C8.33083 11.154 6.81549 9.63865 6.81549 7.76938C6.81549 5.90011 8.33083 4.38477 10.2001 4.38477C12.0694 4.38477 13.5847 5.90011 13.5847 7.76938C13.5847 9.63865 12.0694 11.154 10.2001 11.154Z"
        stroke="#767676" stroke-width="1.5" stroke-linecap="round" stroke-linejoin="round" />
    <path
        d="M15.981 16.4339C15.3768 15.4422 14.5277 14.6226 13.5153 14.054C12.5029 13.4852 11.3612 13.1865 10.2 13.1865C9.03883 13.1865 7.89716 13.4852 6.88475 14.054C5.8723 14.6226 5.02331 15.4422 4.41909 16.4339"
        stroke="#767676" stroke-width="1.5" stroke-linecap="round" stroke-linejoin="round" />
    <path
        d="M10 19C5.02937 19 1 14.9706 1 10C1 5.02944 5.02937 1 10 1C14.9706 1 19 5.02944 19 10C19 14.9706 14.9706 19 10 19Z"
        stroke="#767676" stroke-width="1.5" stroke-linecap="round" stroke-linejoin="round" />
</svg>
