<svg width="20" height="20" viewBox="0 0 20 20" fill="none" xmlns="http://www.w3.org/2000/svg">
<g clip-path="url(#clip0_410_772)">
<path d="M0.189781 10.8004C-0.0632477 10.2992 -0.0632477 9.70081 0.189781 9.19964L0.451796 8.68065C0.508909 8.56752 0.528872 8.44153 0.509535 8.31625L0.420738 7.74171C0.334949 7.18689 0.519848 6.61778 0.915388 6.21935L1.32491 5.80674C1.41422 5.71677 1.47215 5.60309 1.49243 5.47796L1.58548 4.90409C1.6744 4.35608 2.01931 3.87658 2.50978 3.61777L3.01365 3.3206C3.02341 3.31486 3.0333 3.30939 3.04338 3.30423C3.15608 3.2463 3.24628 3.15609 3.30422 3.04335L3.5701 2.52635C3.82078 2.03881 4.33196 1.67828 4.90415 1.58546L5.47799 1.4924C5.60312 1.47209 5.7168 1.41419 5.80677 1.32493L6.21938 0.915324C6.61781 0.519823 7.1868 0.335042 7.74169 0.420674L8.31623 0.509471C8.44159 0.528847 8.56754 0.508885 8.68067 0.45177L9.19966 0.189757C9.7008 -0.0632327 10.2992 -0.0632718 10.8003 0.189757L11.3193 0.45177C11.4324 0.508846 11.5584 0.528769 11.6837 0.50951L12.2583 0.420713C12.8132 0.334886 13.3822 0.519862 13.7806 0.915363L14.1933 1.32489C14.2832 1.41419 14.3969 1.47209 14.522 1.4924L15.0959 1.58546C15.6681 1.67828 16.1793 2.03878 16.4299 2.52635L16.6958 3.04335C16.7538 3.15605 16.844 3.2463 16.9567 3.30423L17.4737 3.57011C17.9613 3.8208 18.3218 4.33197 18.4146 4.90413L18.5077 5.47804C18.528 5.60317 18.5859 5.71681 18.6752 5.80678L19.0847 6.21939C19.4802 6.61782 19.6651 7.18689 19.5793 7.74171L19.4905 8.31628C19.4711 8.44153 19.4911 8.56752 19.5482 8.68065L19.8103 9.19964C20.0632 9.70077 20.0632 10.2991 19.8103 10.8003L19.5482 11.3193C19.4911 11.4324 19.4712 11.5584 19.4905 11.6837L19.5793 12.2583C19.6651 12.8131 19.4802 13.3822 19.0847 13.7806L18.6751 14.1932C18.5858 14.2832 18.5279 14.3969 18.5076 14.522L18.4145 15.0959C18.3217 15.6681 17.9612 16.1792 17.4737 16.4299L16.9567 16.6958C16.8439 16.7537 16.7537 16.8439 16.6957 16.9567L16.4299 17.4737C16.1792 17.9613 15.668 18.3218 15.0958 18.4146L14.522 18.5077C14.3968 18.528 14.2832 18.5859 14.1932 18.6751L13.7806 19.0847C13.3821 19.4802 12.813 19.665 12.2583 19.5794L11.6837 19.4905C11.5585 19.4711 11.4324 19.4911 11.3193 19.5483L10.8003 19.8103C10.5497 19.9368 10.2749 20 10 20C9.72509 20 9.45023 19.9368 9.19966 19.8103L8.68067 19.5483C8.56754 19.4911 8.44147 19.4712 8.31627 19.4905L7.74173 19.5793C7.18692 19.665 6.61785 19.4802 6.21938 19.0847L5.80677 18.6751C5.71684 18.5858 5.60316 18.5279 5.47799 18.5076L4.90415 18.4145C4.35614 18.3256 3.87661 17.9807 3.6178 17.4902L3.32062 16.9863C3.31488 16.9766 3.30941 16.9667 3.30426 16.9566C3.24632 16.8439 3.15608 16.7537 3.04338 16.6957L2.52638 16.4299C2.02712 16.1732 1.67537 15.6891 1.58548 15.1349L1.49243 14.5611C1.47211 14.4359 1.41422 14.3222 1.32491 14.2323C1.3187 14.226 0.905113 13.7702 0.905113 13.7702C0.516684 13.3723 0.335693 12.8083 0.420738 12.2583L0.509535 11.6837C0.528912 11.5585 0.508949 11.4324 0.451834 11.3193L0.189781 10.8004Z" fill="url(#paint0_linear_410_772)"/>
<path d="M10 2.9292C13.882 2.9292 17.0709 6.11895 17.0709 10.0001C17.0709 13.8821 13.8812 17.071 10 17.071C6.11803 17.071 2.92914 13.8812 2.92914 10.0001C2.92914 6.11809 6.11893 2.9292 10 2.9292ZM5.91563 8.38426L7.0876 13.0721C7.1528 13.333 7.3872 13.516 7.65609 13.516H12.344C12.6129 13.516 12.8473 13.333 12.9125 13.0721L14.0844 8.38426C14.1535 8.1081 14.014 7.82226 13.7539 7.70662C13.4938 7.59103 13.1882 7.67912 13.0295 7.91543C12.8691 8.15115 12.289 8.82812 11.758 8.82812C11.6609 8.82812 11.3603 8.60224 11.0506 7.90398C10.7727 7.27756 10.586 6.47152 10.586 5.89819C10.586 5.57457 10.3237 5.31221 10 5.31221C9.67641 5.31221 9.41404 5.57457 9.41404 5.89819C9.41404 6.47152 9.22735 7.27756 8.94948 7.90398C8.63972 8.60224 8.33911 8.82812 8.24207 8.82812C7.69527 8.82812 7.10007 8.10822 6.9706 7.91543C6.81188 7.67916 6.50623 7.59107 6.24617 7.70662C5.98603 7.82226 5.8466 8.1081 5.91563 8.38426Z" fill="url(#paint1_linear_410_772)"/>
</g>
<defs>
<linearGradient id="paint0_linear_410_772" x1="10" y1="20" x2="10" y2="1.43051e-05" gradientUnits="userSpaceOnUse">
<stop stop-color="#FD5900"/>
<stop offset="1" stop-color="#FFDE00"/>
</linearGradient>
<linearGradient id="paint1_linear_410_772" x1="10" y1="17.071" x2="10" y2="2.9292" gradientUnits="userSpaceOnUse">
<stop stop-color="#FFE59A"/>
<stop offset="1" stop-color="#FFFFD5"/>
</linearGradient>
<clipPath id="clip0_410_772">
<rect width="20" height="20" fill="white" transform="matrix(-1 0 0 1 20 0)"/>
</clipPath>
</defs>
</svg>
