<svg width="57" height="24" viewBox="0 0 57 24" fill="none" xmlns="http://www.w3.org/2000/svg">
<rect width="57" height="24" rx="12" fill="#861C5E"/>
<path d="M26.852 16V7.6H29.876C30.548 7.6 31.104 7.716 31.544 7.948C31.984 8.172 32.312 8.476 32.528 8.86C32.744 9.244 32.852 9.684 32.852 10.18C32.852 10.644 32.748 11.072 32.54 11.464C32.332 11.848 32.008 12.16 31.568 12.4C31.128 12.632 30.564 12.748 29.876 12.748H28.292V16H26.852ZM28.292 11.572H29.792C30.36 11.572 30.768 11.448 31.016 11.2C31.264 10.944 31.388 10.604 31.388 10.18C31.388 9.74 31.264 9.396 31.016 9.148C30.768 8.9 30.36 8.776 29.792 8.776H28.292V11.572ZM34.0942 16V7.6H37.1062C37.7702 7.6 38.3182 7.716 38.7502 7.948C39.1902 8.172 39.5142 8.476 39.7222 8.86C39.9382 9.236 40.0462 9.664 40.0462 10.144C40.0462 10.592 39.9422 11.008 39.7342 11.392C39.5262 11.776 39.2022 12.084 38.7622 12.316C38.3222 12.548 37.7582 12.664 37.0702 12.664H35.5342V16H34.0942ZM38.4742 16L36.7102 12.292H38.2702L40.1182 16H38.4742ZM35.5342 11.596H37.0102C37.5462 11.596 37.9382 11.468 38.1862 11.212C38.4422 10.948 38.5702 10.604 38.5702 10.18C38.5702 9.764 38.4462 9.432 38.1982 9.184C37.9502 8.928 37.5542 8.8 37.0102 8.8H35.5342V11.596ZM45.3636 16.144C44.5556 16.144 43.8396 15.964 43.2156 15.604C42.5996 15.236 42.1156 14.728 41.7636 14.08C41.4116 13.424 41.2356 12.664 41.2356 11.8C41.2356 10.944 41.4116 10.192 41.7636 9.544C42.1156 8.888 42.5996 8.376 43.2156 8.008C43.8396 7.64 44.5556 7.456 45.3636 7.456C46.1876 7.456 46.9116 7.64 47.5356 8.008C48.1596 8.376 48.6436 8.888 48.9876 9.544C49.3316 10.192 49.5036 10.944 49.5036 11.8C49.5036 12.664 49.3316 13.424 48.9876 14.08C48.6436 14.728 48.1596 15.236 47.5356 15.604C46.9116 15.964 46.1876 16.144 45.3636 16.144ZM45.3756 14.848C45.9116 14.848 46.3796 14.728 46.7796 14.488C47.1796 14.24 47.4876 13.888 47.7036 13.432C47.9196 12.976 48.0276 12.432 48.0276 11.8C48.0276 11.168 47.9196 10.624 47.7036 10.168C47.4876 9.712 47.1796 9.364 46.7796 9.124C46.3796 8.876 45.9116 8.752 45.3756 8.752C44.8396 8.752 44.3716 8.876 43.9716 9.124C43.5716 9.364 43.2596 9.712 43.0356 10.168C42.8196 10.624 42.7116 11.168 42.7116 11.8C42.7116 12.432 42.8196 12.976 43.0356 13.432C43.2596 13.888 43.5716 14.24 43.9716 14.488C44.3716 14.728 44.8396 14.848 45.3756 14.848Z" fill="white"/>
<g clip-path="url(#clip0_410_781)">
<path d="M2.18978 12.8004C1.93675 12.2992 1.93675 11.7008 2.18978 11.1996L2.4518 10.6806C2.50891 10.5675 2.52887 10.4415 2.50953 10.3162L2.42074 9.74171C2.33495 9.18689 2.51985 8.61778 2.91539 8.21935L3.32491 7.80674C3.41422 7.71677 3.47215 7.60309 3.49243 7.47796L3.58548 6.90409C3.6744 6.35608 4.01931 5.87658 4.50978 5.61777L5.01365 5.3206C5.02341 5.31486 5.0333 5.30939 5.04338 5.30423C5.15608 5.2463 5.24628 5.15609 5.30422 5.04335L5.5701 4.52635C5.82078 4.03881 6.33196 3.67828 6.90415 3.58546L7.47799 3.4924C7.60312 3.47209 7.7168 3.41419 7.80677 3.32493L8.21938 2.91532C8.61781 2.51982 9.1868 2.33504 9.74169 2.42067L10.3162 2.50947C10.4416 2.52885 10.5675 2.50888 10.6807 2.45177L11.1997 2.18976C11.7008 1.93677 12.2992 1.93673 12.8003 2.18976L13.3193 2.45177C13.4324 2.50885 13.5584 2.52877 13.6837 2.50951L14.2583 2.42071C14.8132 2.33489 15.3822 2.51986 15.7806 2.91536L16.1933 3.32489C16.2832 3.41419 16.3969 3.47209 16.522 3.4924L17.0959 3.58546C17.6681 3.67828 18.1793 4.03878 18.4299 4.52635L18.6958 5.04335C18.7538 5.15605 18.844 5.2463 18.9567 5.30423L19.4737 5.57011C19.9613 5.8208 20.3218 6.33197 20.4146 6.90413L20.5077 7.47804C20.528 7.60317 20.5859 7.71681 20.6752 7.80678L21.0847 8.21939C21.4802 8.61782 21.6651 9.18689 21.5793 9.74171L21.4905 10.3163C21.4711 10.4415 21.4911 10.5675 21.5482 10.6806L21.8103 11.1996C22.0632 11.7008 22.0632 12.2991 21.8103 12.8003L21.5482 13.3193C21.4911 13.4324 21.4712 13.5584 21.4905 13.6837L21.5793 14.2583C21.6651 14.8131 21.4802 15.3822 21.0847 15.7806L20.6751 16.1932C20.5858 16.2832 20.5279 16.3969 20.5076 16.522L20.4145 17.0959C20.3217 17.6681 19.9612 18.1792 19.4737 18.4299L18.9567 18.6958C18.8439 18.7537 18.7537 18.8439 18.6957 18.9567L18.4299 19.4737C18.1792 19.9613 17.668 20.3218 17.0958 20.4146L16.522 20.5077C16.3968 20.528 16.2832 20.5859 16.1932 20.6751L15.7806 21.0847C15.3821 21.4802 14.813 21.665 14.2583 21.5794L13.6837 21.4905C13.5585 21.4711 13.4324 21.4911 13.3193 21.5483L12.8003 21.8103C12.5497 21.9368 12.2749 22 12 22C11.7251 22 11.4502 21.9368 11.1997 21.8103L10.6807 21.5483C10.5675 21.4911 10.4415 21.4712 10.3163 21.4905L9.74173 21.5793C9.18692 21.665 8.61785 21.4802 8.21938 21.0847L7.80677 20.6751C7.71684 20.5858 7.60316 20.5279 7.47799 20.5076L6.90415 20.4145C6.35614 20.3256 5.87661 19.9807 5.6178 19.4902L5.32062 18.9863C5.31488 18.9766 5.30941 18.9667 5.30426 18.9566C5.24632 18.8439 5.15608 18.7537 5.04338 18.6957L4.52638 18.4299C4.02712 18.1732 3.67537 17.6891 3.58548 17.1349L3.49243 16.5611C3.47211 16.4359 3.41422 16.3222 3.32491 16.2323C3.3187 16.226 2.90511 15.7702 2.90511 15.7702C2.51668 15.3723 2.33569 14.8083 2.42074 14.2583L2.50953 13.6837C2.52891 13.5585 2.50895 13.4324 2.45183 13.3193L2.18978 12.8004Z" fill="url(#paint0_linear_410_781)"/>
<path d="M12 4.9292C15.882 4.9292 19.0709 8.11895 19.0709 12.0001C19.0709 15.8821 15.8812 19.071 12 19.071C8.11803 19.071 4.92914 15.8812 4.92914 12.0001C4.92914 8.11809 8.11893 4.9292 12 4.9292ZM7.91563 10.3843L9.0876 15.0721C9.1528 15.333 9.3872 15.516 9.65609 15.516H14.344C14.6129 15.516 14.8473 15.333 14.9125 15.0721L16.0844 10.3843C16.1535 10.1081 16.014 9.82226 15.7539 9.70662C15.4938 9.59103 15.1882 9.67912 15.0295 9.91543C14.8691 10.1512 14.289 10.8281 13.758 10.8281C13.6609 10.8281 13.3603 10.6022 13.0506 9.90398C12.7727 9.27756 12.586 8.47152 12.586 7.89819C12.586 7.57457 12.3237 7.31221 12 7.31221C11.6764 7.31221 11.414 7.57457 11.414 7.89819C11.414 8.47152 11.2273 9.27756 10.9495 9.90398C10.6397 10.6022 10.3391 10.8281 10.2421 10.8281C9.69527 10.8281 9.10007 10.1082 8.9706 9.91543C8.81188 9.67916 8.50623 9.59107 8.24617 9.70662C7.98603 9.82226 7.8466 10.1081 7.91563 10.3843Z" fill="url(#paint1_linear_410_781)"/>
</g>
<defs>
<linearGradient id="paint0_linear_410_781" x1="12" y1="22" x2="12" y2="2.00001" gradientUnits="userSpaceOnUse">
<stop stop-color="#FD5900"/>
<stop offset="1" stop-color="#FFDE00"/>
</linearGradient>
<linearGradient id="paint1_linear_410_781" x1="12" y1="19.071" x2="12" y2="4.9292" gradientUnits="userSpaceOnUse">
<stop stop-color="#FFE59A"/>
<stop offset="1" stop-color="#FFFFD5"/>
</linearGradient>
<clipPath id="clip0_410_781">
<rect width="20" height="20" fill="white" transform="matrix(-1 0 0 1 22 2)"/>
</clipPath>
</defs>
</svg>
